/* XPM */
static char *_09f9766db224417824f78dc9f3a619fEP712hNjwhORqGVT[] = {
/* columns rows colors chars-per-pixel */
"64 64 210 2 ",
"   c #2A3297",
".  c #2F3699",
"X  c #30379A",
"o  c #323A9C",
"O  c #3A3F9E",
"+  c #2F37A0",
"@  c #323CA3",
"#  c #353FAA",
"$  c #35419F",
"%  c #3D439F",
"&  c #3C45A1",
"*  c #3A47A6",
"=  c #3542AB",
"-  c #3645B2",
";  c #3946B5",
":  c #3B49B6",
">  c #3A4ABA",
",  c #3F50BC",
"<  c #4147A2",
"1  c #444BA4",
"2  c #4A4FA6",
"3  c #464FAC",
"4  c #4B51A7",
"5  c #4552AC",
"6  c #4D54AA",
"7  c #545BAC",
"8  c #575BAC",
"9  c #404FB6",
"0  c #4453B6",
"q  c #4A57B7",
"w  c #4D5ABD",
"e  c #555DB2",
"r  c #5D63AF",
"t  c #4D66B0",
"y  c #5762B3",
"u  c #5E63B1",
"i  c #526CB4",
"p  c #6166B1",
"a  c #656AB4",
"s  c #6A6EB6",
"d  c #646BB9",
"f  c #6C71B7",
"g  c #6D73B9",
"h  c #6F7CBB",
"j  c #7276B9",
"k  c #747ABC",
"l  c #7A7EBE",
"z  c #3C4EC1",
"x  c #3D51C1",
"c  c #3F54CB",
"v  c #4258CA",
"b  c #4157D1",
"n  c #425AD5",
"m  c #455EDB",
"M  c #4A62CB",
"N  c #5A79C8",
"B  c #4963D3",
"V  c #4661DD",
"C  c #4C69DC",
"Z  c #7177C1",
"A  c #757CC2",
"S  c #4762E2",
"D  c #4964E6",
"F  c #4D6CE3",
"G  c #4765E9",
"H  c #4966E9",
"J  c #4B69EC",
"K  c #5878E6",
"L  c #5273E9",
"P  c #5070EA",
"I  c #4D6DF3",
"U  c #4F71F3",
"Y  c #5375F2",
"T  c #557AF2",
"R  c #597EF2",
"E  c #5F81C2",
"W  c #5D81D7",
"Q  c #7B85C5",
"!  c #6C97CC",
"~  c #6F9AD0",
"^  c #719CD2",
"/  c #75A2CF",
"(  c #75A3D4",
")  c #78A7D6",
"_  c #77ABD6",
"`  c #79A9D6",
"'  c #7CADD9",
"]  c #7EB1DA",
"[  c #5D80EF",
"{  c #5B82F1",
"}  c #5F89F2",
"|  c #6185E4",
" . c #6387EB",
".. c #658DEC",
"X. c #6892EF",
"o. c #6C9AEF",
"O. c #779BE9",
"+. c #6187F1",
"@. c #638CF1",
"#. c #6591F0",
"$. c #6B95F1",
"%. c #7699F2",
"&. c #7CAFE4",
"*. c #77A9EE",
"=. c #7AACED",
"-. c #7DB1E4",
";. c #7DB3ED",
":. c #7BA1F1",
">. c #8287C2",
",. c #878BC5",
"<. c #898EC6",
"1. c #8F95CA",
"2. c #989BCD",
"3. c #9BA0CF",
"4. c #9AA5D3",
"5. c #81B5DC",
"6. c #8AB4DC",
"7. c #86BCDE",
"8. c #88BEDF",
"9. c #A1A5D2",
"0. c #A6A9D4",
"q. c #A9ADD5",
"w. c #ACB0D7",
"e. c #AEB3D9",
"r. c #AFB8DB",
"t. c #B1B4D9",
"y. c #B3BBDC",
"u. c #BABCDD",
"i. c #87BDE0",
"p. c #8CBDE0",
"a. c #83B4ED",
"s. c #8FB6EA",
"d. c #82BAEC",
"f. c #84AAF3",
"g. c #8FB2F3",
"h. c #95B8F3",
"j. c #8BC2DF",
"k. c #BEC1DF",
"l. c #8AC2E1",
"z. c #8BC4E2",
"x. c #8BC5E2",
"c. c #8DC6E2",
"v. c #8EC9E3",
"b. c #8EC9E4",
"n. c #8AC5EC",
"m. c #8ECAEB",
"M. c #90CBE4",
"N. c #91CCE4",
"B. c #92CEE6",
"V. c #99CEE6",
"C. c #91CEEB",
"Z. c #9CCCEE",
"A. c #93D0E6",
"S. c #94D2E7",
"D. c #95D3E8",
"F. c #97D7E9",
"G. c #98D7EA",
"H. c #97D8EA",
"J. c #99D9EA",
"K. c #9FC5F2",
"L. c #A8C8E6",
"P. c #BCC5E2",
"I. c #BECDE8",
"U. c #A4D5EC",
"Y. c #A3DCEC",
"T. c #A9DFED",
"R. c #B1D9EB",
"E. c #A3C4F4",
"W. c #ADCEF4",
"Q. c #B3CEF6",
"!. c #B6D3F3",
"~. c #BFDCF6",
"^. c #ADE1EE",
"/. c #B4E2EF",
"(. c #B9E4EF",
"). c #B5E4F0",
"_. c #BAE6F1",
"`. c #C2C5E1",
"'. c #C4CAE4",
"]. c #C8CAE3",
"[. c #CAD0E6",
"{. c #C5D4EA",
"}. c #CCD5EA",
"|. c #C6DCED",
" X c #CBDCED",
".X c #D4D4EA",
"XX c #D4DBEC",
"oX c #C3DBF5",
"OX c #CCDDF3",
"+X c #D2DDF0",
"@X c #CDE0EE",
"#X c #D9E0EF",
"$X c #CCE3F2",
"%X c #C4E9F3",
"&X c #C9E8F2",
"*X c #D4E4F3",
"=X c #DBE5F2",
"-X c #D4EDF5",
";X c #DCEDF6",
":X c #D9E7F8",
">X c #DDF2F8",
",X c #E2E5F2",
"<X c #E3EAF4",
"1X c #EBECF5",
"2X c #E3F2F9",
"3X c #EBF5FA",
"4X c #EFF5FA",
"5X c #F5F5FA",
"6X c #F4FAFD",
"7X c #FCFDFE",
/* pixels */
"^ ^ ( 7.B.J.J.J.J.J.J.J.J.J.J.J.J.J.J.J.J.S.8.( ~ ~ ( 5.A.J.B.7.` ( ' x.J.J.J.J.J.J.x.` ` x.J.J.J.J.x.' ~ ` x.J.J.F.J.F.G.l.' ~ ",
"( ( ( ' x.S.J.J.J.J.J.J.J.J.J.J.J.J.J.J.J.M.5.( ( ` 5.x.S.J.S.B.7.` ' x.J.J.J.J.J.D.8.` ' x.J.J.J.J.x.' ( 5.M.J.J.J.J.H.J.l.' ~ ",
"7.' ( ( 5.B.J.J.J.J.J.J.J.J.J.J.J.J.J.J.S.l.( ( ' l.B.S.J.J.J.G.x.' ' x.J.J.J.J.G.M.5.( ' x.H.J.J.J.x.' ` i.S.J.J.J.J.J.A.8.( ~ ",
"B.x.] ( ' x.J.J.J.J.J.J.J.J.J.J.J.J.J.J.B.] ) ` v.D.J.J.J.J.J.F.x.] ] l.F.J.J.J.F.x.] ( ' x.F.J.J.H.x.' ' x.J.J.J.J.J.J.v.5.^ ^ ",
"J.M.5.( ' x.J.J.J.J.J.J.J.J.J.J.J.J.J.H.v.' ` x.S.G.J.J.J.J.J.F.x.] ' 8.B.F.J.J.F.v.5.( ' l.F.J.J.G.x.' ' x.J.J.J.J.J.S.i.` ^ ( ",
"J.M.5.( ' x.J.J.J.J.J.J.J.J.J.J.J.J.J.F.c.' ' x.F.J.J.J.J.J.J.F.v.5.' 7.v.F.J.J.F.B.8.' ' 8.A.J.J.F.x.] ' x.G.J.G.H.A.l.' ( _ 5.",
"J.x.' ( 5.B.J.J.J.J.J.J.J.J.J.J.J.J.J.F.x.] ] x.F.J.J.J.J.J.J.F.B.8.5.5.x.F.J.J.J.S.x.] ` 5.v.F.J.F.x.] ] x.F.H.S.B.l.] ( ( 5.l.",
"J.M.8.5.x.S.J.J.J.J.J.J.J.J.J.J.J.J.J.S.x.] ] x.F.J.J.J.J.J.J.J.A.l.5.5.x.S.J.J.J.F.v.7.' ' l.B.H.S.x.] ] l.F.F.B.7.' ( ` 5.l.B.",
"J.S.B.B.S.J.J.J.J.J.J.J.J.J.J.J.J.J.J.S.x.] ] v.F.J.J.J.J.J.J.J.S.x.5.5.l.B.H.J.J.F.A.l.] ' 5.v.S.F.x.] ' i.B.A.x.5.` ` 5.l.B.S.",
"J.J.J.J.J.J.J.J.J.J.J.J.J.J.J.J.J.J.H.B.l.' ' M.F.J.J.J.J.J.J.J.S.x.] ' 5.x.S.H.J.J.F.b.8.' ] l.A.D.M.] ' 7.B.A.x.] ' 7.x.A.F.H.",
"J.J.J.J.J.J.J.J.J.J.J.J.J.J.J.J.J.F.A.x.8.) ) B.F.J.J.J.J.J.J.J.D.x.5.` ' 7.B.F.J.J.J.S.c.' ` ' B.F.A.] ] 5.B.A.v.' ] l.A.F.J.H.",
"J.J.J.J.J.J.J.J.J.J.J.J.J.J.J.J.F.B.l.5.` ( ( D.F.J.J.J.J.J.J.J.F.B.5.' ` 5.B.F.J.J.J.F.A.` ( ( B.F.F.S.A.S.F.D.B.' ' v.S.J.J.H.",
"J.J.J.J.J.J.J.J.J.J.J.J.J.J.J.J.D.x.] ` ( ( ( G.J.J.J.J.J.J.J.J.J.F.A.v.' ' D.J.J.J.J.J.F.S.( ( F.J.J.G.J.J.G.F.D.( ( A.F.J.J.J.",
"J.J.J.J.J.J.J.J.J.J.J.J.J.J.J.F.A.5.' ` ' v.F.J.J.J.J.J.J.J.J.J.J.J.J.H.D.F.G.J.J.J.J.J.J.F.^ ^ J.J.J.J.J.J.J.J.J.^ ^ G.J.J.J.J.",
"J.J.J.J.J.J.J.J.J.J.J.J.J.J.J.G.S.5.5.5.x.S.F.J.J.J.J.J.J.J.J.J.J.J.J.J.J.J.J.J.J.J.J.J.F.S.( ( F.J.J.J.J.J.J.J.G.^ ^ G.J.J.J.J.",
"J.J.J.J.J.J.J.J.J.J.J.J.J.J.J.G.F.B.v.v.S.F.J.J.J.J.J.J.J.J.J.J.J.J.J.J.J.J.J.J.J.J.J.J.D.v.` ` B.F.J.J.J.J.J.F.D.) ) D.F.J.J.H.",
"J.J.J.J.J.J.J.J.J.J.J.J.J.J.J.Y.Y.Y.Y.Y.Y.Y.Y.Y.Y.Y.Y.Y.J.J.J.J.J.J.J.J.J.J.J.J.J.J.J.J.B.l.' ' v.F.J.J.J.J.J.D.v.' ] v.F.J.H.H.",
"J.J.J.J.J.J.J.J.J.Y.Y.Y.Y.^./._._._._._._._._._._._._./.^.Y.Y.J.J.J.J.J.J.J.J.J.J.J.Y.Y.V.p.6.6.V.Y.Y.Y.Y.Y.Y.Y.V.p.p.M.F.J.J.J.",
"J.J.J.J.J.J.J.T.^.)._._.%X-X-X$X X|.|.|.|.|.|.|.|. X$X&X%X_./.^.Y.Y.J.J.J.J.Y.Y.Y.^.)./.R.L.L.L.R./._._._._._.(.R.L.L.U.Y.J.H.J.",
"J.J.J.J.J.T./.%X-X-X*X@X@XXX}.P.y.r.r.r.y.y.y.r.r.y.P.{. X$X&X_././.^.T.Y.T./.)._.>X2X>X;X*X*X=X;X;X-X$X X|. X|.|. X$X&X_.^.Y.J.",
"J.J.J.Y./.%X-X;X=X XP.u.y.t.9.<.Q k A A A Z k k k l ,.3.e.P.}.=X2X3X2X_.(._.>X3X6X6X7X6X4X1X,X,X<X=XXX'.u.y.y.y.u.`.XX;X-X%X).^.",
"(._._.%X-X2X<XXX`.q.<.Q A A g y q q w w w 0 3 3 3 6 e d l <.t.XX4X6X7X6X6X6X6X7X7X7X7X6X1X.X`.k.k.u.q.>.k g j j l 1.t.[.#X*X&X&X",
">X>X>X3X6X,X].w.>.g y q w w w 9 > z c n m D D @ = ; : 0 q e d j ,X5X6X6X7X7X7X7X6X5X4X,X`.<.l k k f p 6 1 < 1 < 2 r l 3.y.P.{. X",
"7X7X7X7X,Xu.,.s e 5 : z c n n n n V F F P I I J F C B v , : 5 e u.]..XXX,X1X1X1X#X.X`.q.j 8 2 1 1 < & o X . . . X % 6 p k <.4.y.",
"k.u.u.u.9.k 8 3 : z b m D F P P P R +.@.R Y T R  ...| K B x * 1 8 p d s j u.`.u.0.<.j u 4 O X . . . . . . . . . . X o & 1 8 u u ",
"f g g j u 3 * > v C F P [ @.$.$.%.%.g.Z.U.U.Z.Z.h.s.O.W M x = @ % & & < 6 r a s a 8 1 & o X . . . . o o @ @ o o . . . . X o O o ",
"; ; ; ; ; > z B K  .X.%.f.g.h.E.E.W.*X2X2X2X:XOXL.4.Q N 0 = @ X . . . X o % < < % o X . o o @ @ @ @ = - ; ; - = @ o o . . . . . ",
"n n n n n n C | O.g.h.E.Q.oXOX*X:X:X=X#XXX#XXXP.1.h y 5 & o X X . . . . . . . . o o @ @ = - ; > > > z c n n c z > = @ o . .     ",
"I I I I T +.%.g.K.!.oX$XOX+XXXXX}.].u.t.2.t.e.2.f 6 & o X . . . . . . . . o o @ @ = - > z b n n n n m S D D S m n c > = @ @ + + ",
"R } #.#.:.g.E.!.|. X X}.'.y.q.l s f f s a s a 8 1 o . . . . . . . . X o @ @ @ # = m m m m S H H H J J I I I I J H S c c > > ; ; ",
"f.g.E.E.!.oX{.I.P.u.e.9.<.k p 6 1 1 < < % < < % o X . . . . X . o @ @ = = - V D J J J J J I I I I I I I I I I I I I H D m n n n ",
"~.$X2X>X XP.e.4.,.l g a 8 2 % o X . . . X X . . . . . o o @ @ @ @ = ; V S H H J I I I I I I I I U Y Y Y Y Y Y U I I I I J H H G ",
"}.'.u.u.9.<.k a 8 4 < & o X . . . . . . . . . . o o @ @ = = # H D D D J J I I I I I I I U Y T T { @.@.@.@.@.@.{ T U I I I I I I ",
"2.,.g j u 6 1 % o X . . . . . . . . . . X o o @ @ = ; > n m D J J J J I I I I I I I U T R } @.X.o.*.;.;.;.;.*.o.@.R T U I I I I ",
"6 1 . X X o X . . . . . X . . . . o o @ @ # = - > b m S D J J I I I I I I I I U Y T R @.o.*.;.d.d.n.m.C.C.m.n.d.=.o.@.R U I I I ",
". . . X o & & & & & & $ o o o @ @ = - ; > n m m S D H J I I I I I I I I U Y Y R } @.o.=.d.n.m.C.A.F.J.J.J.J.F.C.n.d.*.#.{ U I I ",
"i i i i i i i i i i i t 5 * 9 0 0 v M B C F P P P Y Y Y Y T Y Y T T T T { } +.#.a.d.n.m.A.F.J.J.J.J.J.J.J.J.J.J.F.C.n.;.X.{ Y I ",
"/ / / ( ( / ( / / ( / ! E N N N W W | | ......#.#.@.@.@.@.#.@.@.@.#.#.$.o.d.n.n.m.A.F.G.J.J.J.J.J.J.J.J.J.J.J.J.J.H.A.m.d.;.#.} ",
"J.J.G.S.A.B.v.v.v.v.v.j.5.] ' -.&.-.;.a.d.d.d.d.d.d.d.d.d.d.d.d.d.d.d.d.n.C.D.F.G.J.J.J.J.J.J.J.J.J.J.J.J.J.J.J.J.J.J.F.C.n.d.d.",
"J.J.J.J.J.J.J.J.J.J.J.F.S.A.A.C.C.C.A.A.A.D.D.A.A.C.A.C.A.A.C.A.C.C.C.C.A.F.J.J.J.J.J.J.J.J.J.J.J.J.J.J.J.J.J.J.J.J.J.J.H.F.A.A.",
"J.J.J.J.J.J.J.J.J.J.J.J.J.J.J.J.J.J.J.J.J.J.J.J.J.J.J.J.J.J.J.J.J.J.J.J.J.J.J.J.J.J.J.J.J.J.J.J.J.J.J.J.J.J.J.J.J.J.J.H.J.J.J.J.",
"J.J.J.J.J.J.J.J.J.J.J.J.J.J.J.J.J.J.J.J.J.J.J.J.J.J.J.J.J.J.J.J.J.J.J.J.J.J.J.J.J.J.J.J.J.J.J.J.J.J.J.J.J.J.J.J.J.J.J.H.H.J.J.J.",
"J.J.J.J.J.J.J.J.J.J.J.J.J.J.J.J.J.J.J.J.J.J.J.J.J.J.J.J.J.J.J.J.J.J.J.J.J.J.J.J.J.J.J.J.J.J.J.J.J.J.J.J.J.J.J.J.J.J.J.J.J.H.J.J.",
"J.J.J.J.J.J.J.J.J.J.J.J.J.J.J.J.J.J.J.J.J.J.J.J.J.J.J.J.J.J.J.J.J.J.J.J.J.J.J.J.J.J.J.J.J.J.J.J.J.J.J.J.J.J.J.J.J.J.J.J.J.H.J.H.",
"J.J.J.J.J.J.J.J.J.J.J.J.J.J.J.J.J.J.J.J.J.J.J.J.J.J.J.J.J.J.J.J.J.J.J.J.J.J.J.J.J.J.J.J.J.J.J.J.J.J.J.J.J.J.J.J.J.J.J.J.J.J.J.H.",
"J.J.J.J.J.J.J.J.J.J.J.J.J.J.J.J.J.J.J.J.J.J.J.J.J.J.J.J.J.J.J.J.J.J.J.J.J.J.J.J.J.J.J.J.J.J.J.J.J.J.J.J.J.J.J.J.J.J.J.H.H.H.J.H.",
"J.J.J.J.J.J.J.J.J.J.J.J.J.J.J.J.J.J.J.J.J.J.J.J.J.J.J.J.J.J.J.J.J.J.J.J.J.J.J.J.J.J.J.J.J.J.J.J.J.J.J.J.J.J.J.J.J.J.J.J.H.H.H.H.",
"J.J.J.J.J.J.J.J.J.J.J.J.J.J.J.J.J.J.J.J.J.J.J.J.J.J.J.J.J.J.J.J.J.J.J.J.J.J.J.J.J.J.J.J.J.J.J.J.J.J.J.J.J.J.J.J.J.J.J.J.J.J.J.J.",
"J.J.J.J.J.J.J.J.J.J.J.J.J.J.J.J.J.J.J.J.J.J.J.J.J.J.J.J.J.J.J.J.J.J.J.J.J.J.J.J.J.J.J.J.J.J.J.J.J.J.J.J.J.J.J.J.J.J.J.J.J.H.J.J.",
"J.J.J.J.J.J.J.J.J.J.J.J.J.J.J.J.J.J.J.J.J.J.J.J.J.J.J.J.J.J.J.J.J.J.J.J.J.J.J.J.J.J.J.J.J.J.J.J.J.J.J.J.J.J.J.J.J.J.J.J.J.J.J.J.",
"J.J.J.J.J.J.J.J.J.J.J.J.J.J.J.J.J.J.J.J.J.J.J.J.J.J.J.J.J.J.J.J.J.J.J.J.J.J.J.J.J.J.J.J.J.J.J.J.J.J.J.J.J.J.J.J.J.J.J.J.J.J.J.J.",
"J.J.J.J.J.J.J.J.J.J.J.J.J.J.J.J.J.J.J.J.J.J.J.J.J.J.J.J.J.J.J.J.J.J.J.J.J.J.J.J.J.J.J.J.J.J.J.J.J.J.J.J.J.J.J.J.J.J.J.J.J.J.J.J.",
"J.J.J.J.J.J.J.J.J.J.J.J.J.J.J.J.J.J.J.J.J.J.J.J.J.J.J.J.J.J.J.J.J.J.J.J.J.J.J.J.J.J.J.J.J.J.J.J.J.J.J.J.J.J.J.J.J.J.J.J.J.J.J.H.",
"J.J.J.J.J.J.J.J.J.J.J.J.J.J.J.J.J.J.J.J.J.J.J.J.J.J.J.J.J.J.J.J.J.J.J.J.J.J.J.J.J.J.J.J.J.J.J.J.J.J.J.J.J.J.J.J.J.J.J.J.J.J.J.H.",
"J.J.J.J.J.J.J.J.J.J.J.J.J.J.J.J.J.J.J.J.J.J.J.J.J.J.J.J.G.F.F.G.J.J.J.J.J.J.J.J.J.J.J.J.J.J.J.J.J.J.J.J.J.J.J.J.J.J.J.J.J.J.J.H.",
"J.J.J.J.J.F.G.J.J.J.J.J.J.J.J.J.J.J.J.J.J.J.J.J.J.J.F.F.A.B.M.B.S.F.G.G.J.J.J.J.J.J.H.J.J.J.J.J.J.J.J.J.J.J.J.J.J.J.J.J.H.J.J.H.",
"J.J.J.S.M.v.B.S.F.F.F.H.J.J.J.J.J.J.J.J.J.J.J.J.J.F.B.x.' ' ' 5.x.B.B.A.S.F.J.J.J.J.J.J.J.J.J.J.J.F.F.D.D.F.F.J.J.J.J.J.H.F.F.A.",
"B.M.x.8.5.5.8.l.x.v.B.S.F.F.J.J.J.J.J.J.J.J.J.F.S.B.l.] ) ( ( ( ( ` ' l.v.A.F.J.J.J.J.J.J.J.J.F.S.B.v.x.x.v.A.F.H.J.J.H.F.B.v.x.",
"7.5.' ` ( ( _ ' ] 5.8.l.v.B.S.F.J.J.J.J.J.F.S.B.x.8.] ( ^ ^ ~ ~ ^ ^ ( ` ] x.A.F.J.J.J.J.H.F.S.B.x.8.5.] ' 5.l.b.S.F.F.F.A.x.5.] ",
"( ( ^ ^ ^ ^ ^ ^ ( ( ` ] 5.8.x.B.A.S.S.S.A.B.x.i.5.` ( ^ ~ ~ ~ ^ ^ ~ ^ ^ ` 5.x.B.S.S.S.S.A.B.x.8.5.' ( ( ( ( ' 8.x.B.A.B.x.5.` ( ",
"~ ^ ^ ^ ~ ^ ~ ~ ^ ^ ^ ( ( ' 5.8.l.x.x.x.l.8.5.' ( ^ ^ ^ ~ ~ ~ ~ ~ ~ ~ ^ ^ ` 7.l.x.x.x.x.l.8.5.' ( ^ ^ ^ ~ ^ ( ' 5.8.x.l.5.` ^ ~ ",
"~ ^ ^ ~ ~ ~ ~ ~ ~ ~ ~ ~ ^ ( ( ` ' ' ' ' ' ` ( ^ ^ ~ ~ ~ ~ ~ ~ ~ ~ ~ ~ ^ ^ ( ( ` ' ' ' ' ` ` ( ( ^ ~ ^ ~ ~ ~ ^ ^ ( ` ` ` ( ( ^ ~ ",
"~ ^ ^ ~ ~ ~ ~ ~ ~ ~ ~ ~ ~ ~ ^ ^ ^ ( ( ( ( ^ ^ ^ ^ ~ ~ ~ ~ ~ ^ ^ ~ ~ ~ ~ ~ ^ ^ ^ ^ ^ ^ ^ ^ ^ ^ ^ ^ ~ ~ ~ ~ ^ ~ ~ ^ ^ ^ ^ ^ ^ ~ ~ ",
"~ ~ ~ ~ ~ ^ ~ ~ ~ ~ ~ ~ ~ ~ ~ ~ ~ ~ ~ ~ ~ ~ ~ ~ ~ ~ ~ ~ ^ ~ ^ ^ ~ ~ ~ ~ ~ ~ ~ ~ ^ ^ ^ ~ ~ ~ ~ ~ ~ ~ ~ ~ ~ ~ ~ ~ ~ ~ ~ ^ ~ ~ ~ ~ "
};
