/* XPM */
static char *_e2c33292e60490597c6b74078d20aaeMqClF92O7d25OaKD[] = {
/* columns rows colors chars-per-pixel */
"64 64 5 1 ",
"  c #2F3699",
". c #4D6DF3",
"X c #709AD1",
"o c #99D9EA",
"O c white",
/* pixels */
"XXXooooooooooooooooooooXXXXXoooXXXXooooooooXXooooooXXXooooooooXX",
"XXXXooooooooooooooooooXXXXXooooooXXooooooooXXooooooXXXooooooooXX",
"oXXXXoooooooooooooooooXXXooooooooXXoooooooXXXooooooXXoooooooooXX",
"ooXXXooooooooooooooooXXXoooooooooXXoooooooXXXooooooXXooooooooXXX",
"oooXXooooooooooooooooXXooooooooooXXoooooooXXXooooooXXooooooooXXX",
"ooXXXooooooooooooooooXXooooooooooXXXoooooooXXooooooXXoooooooXXXo",
"ooXXXooooooooooooooooXXoooooooooooXXoooooooXXXoooooXXooooooXXXXo",
"ooXXoooooooooooooooooXXoooooooooooXXoooooooXXXoooooXXooooXXXXXoo",
"oooooooooooooooooooooXXoooooooooooXXooooooooXXXooooXXooooXXXXooo",
"oooooooooooooooooooooXXoooooooooooXXoooooooooXXooooXXXoooXXooooo",
"oooooooooooooooooooooXXoooooooooooXXXXoooooooXXXoooXXXoooXXooooo",
"oooooooooooooooooooXXXXoooooooooooXXXXoooooooXXXoooooooooXXooooo",
"ooooooooooooooooooXXXXXoooooooooooooXXooooooooXXoooooooooXXooooo",
"oooooooooooooooooXXXXoooooooooooooooooooooooooXXoooooooooXXooooo",
"oooooooooooooooooXXXooooooooooooooooooooooooooXXoooooooooXXooooo",
"ooooooooooooooooooooooooooooooooooooooooooooooXXoooooooooXXooooo",
"ooooooooooooooooooooooooooooooooooooooooooooooXXoooooooooXXooooo",
"oooooooooooooooooooooooooooooooooooooooooooooXXXoooooooooXXooooo",
"oooooooooooooooooooooooooooooooooooooooooooooXXXoooooooooXXooooo",
"oooooooooooooooooooooooooooooooooooooooooOOOOOOOOOOOOOOOOOOOoooo",
"ooooooooooooooooooooooooooooooooooooooOOOOOOOOOOOOOOOOOOOOOOOooo",
"ooooooooooooooooooooooooooooooooOOOOOOOOOOOOO             OOOOOo",
"ooooooooooooooooooooooooooooOOOOOOOOOOOOO                  OOOOO",
"oooooooooooooooooooooooooOOOOOOOOOOO                          OO",
"oooooooooooooooooooooooOOOOOOOOO                                ",
"ooooooooooooooooooOOOOOOOOOOOO                                  ",
"oooooooooooooOOOOOOOOOOOOOO                                     ",
"oooooooooOOOOOOOOOOOOOOO                           ....         ",
"oooooooOOOOOOOOOOOOO OOO                     .............      ",
"oooooOOOOOOOOOO                          ...................    ",
"oOOOOOOOOOOO                          ..........................",
"OOOOOOOO                           .............................",
"OOOOO                          .................................",
"O                           .....................oooooo.........",
"                         ....................oooooooooooo.......",
"                     ......................oooooooooooooooo.....",
"                  ......................oooooooooooooooooooo....",
"              .......................ooooooooooooooooooooooooo..",
"          .......................ooooooooooooooooooooooooooooooo",
"       ......................ooooooooooooooooooooooooooooooooooo",
"    ......................oooooooooooooooooooooooooooooooooooooo",
".......................ooooooooooooooooooooooooooooooooooooooooo",
"..................oooooooooooooooooooooooooooooooooooooooooooooo",
".............ooooooooooooooooooooooooooooooooooooooooooooooooooo",
".......ooooooooooooooooooooooooooooooooooooooooooooooooooooooooo",
".....ooooooooooooooooooooooooooooooooooooooooooooooooooooooooooo",
"....oooooooooooooooooooooooooooooooooooooooooooooooooooooooooooo",
"oooooooooooooooooooooooooooooooooooooooooooooooooooooooooooooooo",
"oooooooooooooooooooooooooooooooooooooooooooooooooooooooooooooooo",
"oooooooooooooooooooooooooooooooooooooooooooooooooooooooooooooooo",
"oooooooooooooooooooooooooooooooooooooooooooooooooooooooooooooooo",
"oooooooooooooooooooooooooooooooooooooooooooooooooooooooooooooooo",
"oooooooooooooooooooooooooooooooooooooooooooooooooooooooooooooooo",
"oooooooooooooooooooooooooooooooooooooooooooooooooooooooooooooooo",
"oooooooooooooooooooooooooooooooooooooooooooooooooooooooooooooooo",
"oooooooooooooooooooooooooooooooooooooooooooooooooooooooooooooooo",
"ooooooooooooooooooooooooooooXXXXoooooooooooooooooooooooooooooooo",
"ooooXXoooooooooooooooooooooXXXXXXXXooooooooooooooooooooooooooooo",
"oXXXXXXXXXooooooooooooooooXXXXXXXXXXXoooooooooooooXXXXooooooooXX",
"XXXXXXXXXXXXXoooooooooooXXXXXXXXXXXXXXooooooooooXXXXXXXooooooXXX",
"XXXXXXXXXXXXXXXoooooooXXXXXXXXXXXXXXXXooooooooXXXXXXXXXXXooooXXX",
"XXXXXXXXXXXXXXXXXXXXXXXXXXXXXXXXXXXXXXXXXXXXXXXXXXXXXXXXXXXXXXXX",
"XXXXXXXXXXXXXXXXXXXXXXXXXXXXXXXXXXXXXXXXXXXXXXXXXXXXXXXXXXXXXXXX",
"XXXXXXXXXXXXXXXXXXXXXXXXXXXXXXXXXXXXXXXXXXXXXXXXXXXXXXXXXXXXXXXX"
};
