/* XPM */
static char *pixil_frame_0_22_1713969731[] = {
/* columns rows colors chars-per-pixel */
"64 64 15 1 ",
"  c #2E222F",
". c #18561D",
"X c #296E2D",
"o c #AE2334",
"O c #E83B3B",
"+ c #FB6B1D",
"@ c #9C4665",
"# c #2E8E34",
"$ c #1BB42F",
"% c #FDC63C",
"& c #C7FC58",
"* c #FEEF40",
"= c #DE5B8A",
"- c #F0729A",
"; c #B5A5D5",
/* pixels */
";;;;;;;;;;;;;;;;;;;;;;;;;;;;;;;;;;;;;;;;;;;;;;;;;;;;;;;;;;;;;;;;",
";;;;;;;;;;;;;;;;;;;;;;;;;;;;;;;;;;;;;;;;;;;;;;;;;;;;;;;;;;;;;;;;",
";;;;;;;;;;;;;;;;;;;;;;;;;;;;;;;;;;;;;;;;;;;;;;;;;;;;;;;;;;;;;;;;",
";;;;;;;;;;;;;;;;;;;;;;;;;;;;;;;;;;;;;;;;;;;;;;;;;;;;;;;;;;;;;;;;",
";;;;;;;;;;;;;;;;;;;;;;;;;;;;;;;;;;;;;;;;;;;;;;;;;;;;;;;;;;;;;;;;",
";;;;;;;;;;;;;;;;;;;;;;;;;;;;;;;;;;;;;;;;;;;;;;;;;;;;;;;;;;;;;;;;",
";;;;;;;;;;;;;;;;;;;;;;;;;;;;;;;;;;;;;;;;;;;;;;;;;;;;;;;;;;;;;;;;",
";;;;;;;;;;;;;;;;;;;;;;;;;;;;;;;;;;;;;;;;;;;;;;;;;;;;;;;;;;;;;;;;",
";;;;;;;;;;;;;;;;;;;;;;;;;;;;;;;;;;;;;;;;;;;;;;;;;;;;;;;;;;;;;;;;",
";;;;;;;;;;;;;;;;;;;;;;     ;;;;;;;;;;     ;;;;;;;;;;;;;;;;;;;;;;",
";;;;;;;;;;;;;;;;;;;;; ooooo  ;;;;;;  ooooo ;;;;;;;;;;;;;;;;;;;;;",
";;;;;;;;;;;;;;;;;;;; oooooooo ;;;; oooooooo ;;;;;;;;;;;;;;;;;;;;",
";;;;;;;;;;;;;;;;;;; oooOOOOooo ;; oooOOOOooo ;;;;;;;;;;;;;;;;;;;",
";;;;;;;;;;;;;;;;;; oooOOOOOOOoo  ooOOOOOOOooo ;;;;;;;;;;;;;;;;;;",
";;;;;;;;;;;;;;;;;; ooOOOOOOOOOOooOOOOO++OOOoo ;;;;;;;;;;;;;;;;;;",
";;;;;;;;;;;;;;;;; ooOOOOOOOOOOOOOOOOO++++OOOoo ;;;;;;;;;;;;;;;;;",
";;;;;;;;;;;;;;;;; ooOOOOOOOOOOOOOOOOO+++++OOoo ;;;;;;;;;;;;;;;;;",
";;;;;;;;;;;;;;;;; ooOOOOOOOOOOOOOOOO++++++OOoo ;;;;;;;;;;;;;;;;;",
";;;;;;;;;;;;;;;;; ooOOOOOOOOOOOOOOOO++++++OOoo ;;;;;;;;;;;;;;;;;",
";;;;;;;;;;;;;;;;; ooOOOOOOOOOOOOOOOO+++++OOOoo ;;;;;;;;;;;;;;;;;",
";;;;;;;;;;;;;;;;; oooOOOOOOOOOOOOOOO++++OOOooo ;;;;;;;;;;;;;;;;;",
";;;;;;;;;;;;;;;;;; ooOOOOOOOOOOOOOOOO++OOOOoo ;;;;;;;;;;;;;;;;;;",
";;;;;;;;;;;;;;;;;; oooOOOOOOOOOOOOOOOOOOOOooo ;;;;;;;;;;;;;;;;;;",
";;;;;;;;;;;;;;;;;;; oooOOOOOOOOOOOOOOOOOOooo ;;;;;;;;;;;;;;;;;;;",
";;;;;;;;;;;;;;;;;;;; oooOOOOOOOOOO++OOOOooo ;;;;;;;;;;;;;;;;;;;;",
";;;;;;;;;;;;;;;;;;;;; oooOOOOOOOOO++OOOooo ;;;;;;;;;;;;;;;;;;;;;",
";;;;;;;;;;;;;;;;;;;;;; oooOOOOOOOOOOOOooo ;;;;;;;;;;;;;;;;;;;;;;",
";;;;;;;;;;;;;;;;;;;;;;; oooOOOOOOOOOOooo ;;;;;;;;;;;;;;;;;;;;;;;",
";;;;;;;;;;;;;;;;;;;;;;;; oooOOOOOOOOooo ;;;;;;;;;;;;;;;;;;;;;;;;",
";;;;;;;;;;;;;;;;;;;;;;;;; oooOOOOOOooo ;;;;;;;;;;;;;;;;;;;;;;;;;",
";;;;;;;;;;;;;;;;;;;;;;;;;; oooOOOOooo ;;;;;;;;;;;;;;;;;;;;;;;;;;",
";;;;;;;;;;@@;;;;;;;;;;;;;;; oooOOooo ;;;;;;;;@@;;;;;;;;;;;;;;;;;",
";;;;;;;;;@=-@.....;;;;;;;;;; oooooo ;;;;;;;;@=-@.....;;;;;;;;;;;",
";;;;;;;;@@=-@@#XX&.;;;;;;;;;; oooo ;;;;;;;;@@=-@@#XX&.;;;;;;;;;;",
";;;;;;;@--%*-=@$$$.;;;;;;;;;;; oo ;;;;;;;;@--%*-=@$$$.;;;;;;;;;;",
";;;;;;;@==%%==@$$$.;;;;;;;;;;;;  ;;;;;;;;;@==%%==@$$$.;;;;;;;;;;",
";;;;;;;;@@=-@@$$$$.;;;;;;;;;;;;;;;;;;;;;;;;@@=-@@$$$$.;;;;;;;;;;",
";;;;;;;;;@==@$$$$$.;;;;;;;;;;;;;;;;;;;;;;;;;@==@$$$$$.;;;;;;;;;;",
";;;;;;;;;.@@$$$&$$.;;;;;;;;;;;;;;;;;;;;;;;;;.@@$$$&$$.;;;;;;;;;;",
";;;;;;;;;.#$$$$$$$&&;;;;;;;;;;;;;;;;;;;;;;;;.#$$$$$$$&&;;;;;;;;;",
";;;;;;;;;.&$$$$$$$.;;;;;;;;;;;;;;;;;;;;;;;;;.&$$$$$$$.;;;;;;;;;;",
";;...;;;;.#$$.$$$&.;;;;;...;;;;;;;;;;...;;;;.#$$.$$$&.;;;;;...;;",
";.##X.;;;.#$&.$$$$.;;;;.$##.;;;;;;;;.##X.;;;.#$&.$$$$.;;;;.$##.;",
";.#.$.;;;.#$$.$$$$.;;;;.$$#.;;;;;;;;.#.$.;;;.#$$.$$$$.;;;;.$$#.;",
"&&#.$$...$$$$.$$$$.;;;;.$.#&;;;;;;;&&#.$$...$$$$.$$$$.;;;;.$.#&;",
";.#.&$$$$$$$$.$$$$.;;;;.$.#&&;;;;;;;.#.&$$$$$$$$.$$$$.;;;;.$.#&&",
";.#.$$$&$$$$&.$$$$.;;;;.$.#.;;;;;;;;.#.$$$&$$$$&.$$$$.;;;;.$.#.;",
";;&#X$$$$$$$$.$$$$$....$$.#.;;;;;;;;;&#X$$$$$$$$.$$$$$....$$.#.;",
";&;.#X$$&$$$$.$$$$$$$$$$&$#.;;;;;;;;&;.#X$$&$$$$.$$$$$$$$$$&$#.;",
";;;;.##XXX$.$.$$$$$$&$$$$X#.;;;;;;;;;;;.##XXX$.$.$$$$$$&$$$$X#.;",
";;;;;.....X.$.$$&$$$$$XXXX.;;;;;;;;;;;;;.....X.$.$$&$$$$$XXXX.;;",
";;;;;;;;;.X.$$$$$$$XXXX...;;;;;;;;;;;;;;;;;;.X.$$$$$$$XXXX...;;;",
";;;;;;;;&&X.$$$.$$$....;;;;;;;;;;;;;;;;;;;;&&X.$$$.$$$....;;;;;;",
";;;;;;;;;.X.$$$.$$.;;;;;;;;;;;;;;;;;;;;;;;;;.X.$$$.$$.;;;;;;;;;;",
";;;;;;;;;.X.$&$.$$.;;;;;;;;;;;;;;;;;;;;;;;;;.X.$&$.$$.;;;;;;;;;;",
";;;;;;;;;.#.$$$.$$&&;;;;;;;;;;;;;;;;;;;;;;;;.#.$$$.$$&&;;;;;;;;;",
";;;;;;;;;.&.$.$.$$.;;;;;;;;;;;;;;;;;;;;;;;;;.&.$.$.$$.;;;;;;;;;;",
";;;;;;;;;.#.X.$.$$.;;;;;;;;;;;;;;;;;;;;;;;;;.#.X.$.$$.;;;;;;;;;;",
";;;;;;;;;.#.X.$.&$.;;;;;;;;;;;;;;;;;;;;;;;;;.#.X.$.&$.;;;;;;;;;;",
";;;;;;;;;.#.X.$.$$.;;;;;;;;;;;;;;;;;;;;;;;;;.#.X.$.$$.;;;;;;;;;;",
";;;;;;;;;.#.X.$.$$.;;;;;;;;;;;;;;;;;;;;;;;;;.#.X.$.$$.;;;;;;;;;;",
";;;;;;;;;.&##XX$$$.;;;;;;;;;;;;;;;;;;;;;;;;;.&##XX$$$.;;;;;;;;;;",
";;;;;;;;;.###&#XX$.;;;;;;;;;;;;;;;;;;;;;;;;;.###&#XX$.;;;;;;;;;;",
";;;;;;;;;;........;;;;;;;;;;;;;;;;;;;;;;;;;;;........;;;;;;;;;;;"
};
