/* XPM */
static char *_ca1f2ade7514da8e6e3dfd604e59112vEBpSG8X3P2iD9ct[] = {
/* columns rows colors chars-per-pixel */
"64 64 14 1 ",
"  c black",
". c #2D2D2D",
"X c #927A7B",
"o c #6F3198",
"O c #7B44A2",
"+ c #936CB7",
"@ c #A38888",
"# c #B7ADAD",
"$ c #A992CB",
"% c #B5A5D5",
"& c #CDC1C1",
"* c #ECC4C4",
"= c #E4D7D7",
"- c #FFF0F0",
/* pixels */
"oooooooooooooooooooooooooooooooooooooooooooooooooooooooooooooooo",
"oooooooooooooooooooooooooooooooooooooooooooooooooooooooooooooooo",
"oooooooooooooooooooooooooooooooooooooooooooooooooooooooooooooooo",
"oooooooooooooooooooooooooooooooooooooooooooooooooooooooooooooooo",
"oooooooooooooooooooooooooooooooooooooooooooooooooooooooooooooooo",
"oooooooooooooooooooooooooooooooooooooooooooooooooooooooooooooooo",
"oooooooooooooooooooooooooooooooooooooooooooooooooooooooooooooooo",
"oooooooooooooooooooooooooooooooooooooooooooooooooooooooooooooooo",
"oooooooooooooooooooooooooooooooooooooooooooooooooooooooooooooooo",
"oooooooooooooooooooooooooooooooooooooooooooooooooooooooooooooooo",
"oooooooooooooooooooooooooooooooooooooooooooooooooooooooooooooooo",
"oooooooooooooooooooooooooooooooooooooooooooooooooooooooooooooooo",
"oooooooooooooooooooooooooooooooooooooooooooooooooooooooooooooooo",
"oooooooooooooooooooooooooooooooooooooooooooooooooooooooooooooooo",
"oooooooooooooooooooooooooooooooooooooooooooooooooooooooooooooooo",
"oooooooooooooooooooooooooooooooooooooooooooooooooooooooooooooooo",
"oooooooooooooooooooooooooooooooooooooooooooooooooooooooooooooooo",
"oooooooooooooooooooooooooooooooooooooooooooooooooooooooooooooooo",
"oooooooooooooooooooooooooooooooooooooooooooooooooooooooooooooooo",
"oooooooooooooooooooooooooooooooooooooooooooooooooooooooooooooooo",
"oooooooooooooooooooooooooooooooooooooooooooooooooooooooooooooooo",
"oooooooooooooooooooooooooooooooooooooooooooooooooooooooooooooooo",
"oooooooooooooooooooooooooooooooooooooooooooooooooooooooooooooooo",
"oooooooooooooooooo    oo    oo    oooooooooooooooooooooooooooooo",
"oooooooooooooooooo ..   ----  --- oooooooooooooooooooooooooooooo",
"ooooooooooooooooooo   --------          oooooooooooooooooooooooo",
"ooooooooooooooooooooo -------  .----...   oooooooooooooooooooooo",
"ooooooooooooooooooooo ------- ..-----...   ooooooooooooooooooooo",
"ooooooooooooooooooooo - -- -- .-------...-  oooooooooooooooooooo",
"ooooooooooooooooooooo - -- -- ----..------  oooooooooooooooooooo",
"ooooooooooooooooooooo ******- ---....----- ooooooooooooooooooooo",
"oooooooooooooooooooo * ** *** --.....----- ooooooooooooooooooooo",
"oooooooooooooooooooo ******** =-...------- ooooooooooooooooooooo",
"oooooooooooooooooooo @******* &==--------- ooooooooooooooooooooo",
"ooooooooooooooooooooo @@@@@@ ##&&======--- ooooooooooooooooooooo",
"oooooooooooooooooooooo      ##&   XXXXX  - ooooooooooooooooooooo",
"ooooooooooooooooooooooooo     & oo X@@ o - ooooooooooooooooooooo",
"ooooooooooooooooooooooooo & o = ooo@ @ o - ooooooooooooooooooooo",
"ooooooooooooooooooooooooo & o = oooo & o - ooooooooooooooooooooo",
"ooooooooooooooooooooooooo   o   oooo   o   ooooooooooooooooooooo",
"oooooooooooooooooooooooooooooooooooooooooooooooooooooooooooooooo",
"oooooooooooooooooooooooooooooooooooooooooooooooooooooooooooooooo",
"oooooooooooooooooooooooooooooooooooooooooooooooooooooooooooooooo",
"oooooooooooooooooooooooooooooooooooooooooooooooooooooooooooooooo",
"oooooooooooooooooooooooooooooooooooooooooooooooooooooooooooooooo",
"oooooooooooooooooooooooooooooooooooooooooooooooooooooooooooooooo",
"oooooooooooooooooooooooooooooooooooooooooooooooooooooooooooooooo",
"oooooooooooooooooooooooooooooooooooooooooooooooooooooooooooooooo",
"oooooooooooooooooooooooooooooooooooooooooooooooooooooooooooooooo",
"oooooooooooooooooooooooooooooooooooooooooooooooooooooooooooooooo",
"oooooooooooooooooooooooooooooooooooooooooooooooooooooooooooooooo",
"oooooooooooooooooooooooooooooooooooooooooooooooooooooooooooooooo",
"oooooooooooooooooooooooooooooooooooooooooooooooooooooooooooooooo",
"oooooooooooooooooooooooooooooooooooooooooooooooooooooooooooooooo",
"oooooooooooooooooooooooooooooooooooooooooooooooooooooooooooooooo",
"oooooooooooooooooooooooooooooooooooooooooooooooooooooooooooooooo",
"oooooooooooooooooooooooooooooooooooooooooooooooooooooooooooooooo",
"oooooooooooooooooooooooooooooooooooooooooooooooooooooooooooooooo",
"oooooooooooooooooooooooooooooooooooooooooooooooooooooooooooooooo",
"OOOOOOOOOOOOOOOOOOOOOOOOOOOOOOOOOOOOOOOOOOOOOOOOOOOOOOOOOOOOOOOO",
"++++++++++++++++++++++++++++++++++++++++++++++++++++++++++++++++",
"$$$$$$$$$$$$$$$$$$$$$$$$$$$$$$$$$$$$$$$$$$$$$$$$$$$$$$$$$$$$$$$$",
"%%%%%%%%%%%%%%%%%%%%%%%%%%%%%%%%%%%%%%%%%%%%%%%%%%%%%%%%%%%%%%%%",
"%%%%%%%%%%%%%%%%%%%%%%%%%%%%%%%%%%%%%%%%%%%%%%%%%%%%%%%%%%%%%%%%"
};
