/* XPM */
static char *_53f21d62ebc4406be3ccf757f52891biozx0BRojTTTa192[] = {
/* columns rows colors chars-per-pixel */
"64 62 67 1 ",
"  c black",
". c #32435D",
"X c #344460",
"o c #3D4C6A",
"O c #454769",
"+ c #464C72",
"@ c #47517A",
"# c #47537E",
"$ c #78536A",
"% c #68597B",
"& c #994747",
"* c #A54B4B",
"= c #A84B4B",
"- c #935A6F",
"; c #99596C",
": c #855C78",
"> c #C25353",
", c #C25E5F",
"< c #C26264",
"1 c #C26466",
"2 c #C26669",
"3 c #C2696C",
"4 c #C26F72",
"5 c #C27175",
"6 c #495D90",
"7 c #705F85",
"8 c #4E6889",
"9 c #506788",
"0 c #546D8E",
"q c #4F6397",
"w c #4A639A",
"e c #4D6399",
"r c #4D649A",
"t c #4B659D",
"y c #556192",
"u c #566396",
"i c #596293",
"p c #586294",
"a c #536B90",
"s c #516398",
"d c #506499",
"f c #61618F",
"g c #5F75A7",
"h c #6178A8",
"j c #A1A8B6",
"k c #A3AAB8",
"l c #A6ADBA",
"z c #A9B0BD",
"x c #C38F97",
"c c #ADB4C2",
"v c #AFB6C4",
"b c #B2B9C7",
"n c #B3BAC8",
"m c #B5BCCA",
"M c #B6BDCC",
"N c #B8BFCD",
"B c #B5BFD3",
"V c #BAC1CF",
"C c #BBC2D1",
"Z c #BCC3D2",
"A c #BEC5D3",
"S c #BFC6D4",
"D c #C0C7D6",
"F c #C1C8D7",
"G c #C3CAD9",
"H c #C5CCDB",
"J c white",
/* pixels */
"                                                                ",
"                                                                ",
"                                                                ",
"   000000000000000000000000000000000000000000000000000000000    ",
"   000000000000000000000000000000000000000000000000000000000    ",
"   000000000000000000000000000000000000000000000000000000000    ",
"   000000000000000000000000000000000000000000000000000000000    ",
"   000000000000000000000000000000000000000000000000000000000    ",
"   000000000000000000000000000000000000000000000000000000000    ",
"   000000000000000000000000000000000000000000000000000000000    ",
"   000000000000000000000000000000000000000000000000000000000    ",
"   000000000000000000000000000000000000000000000000000000000    ",
"   000000000000000000000000000000000000000000000000000000000    ",
"   00tttttttttttttttttttttttttttttttttttttttttttttttttttta00    ",
"   0ttttdiiyrttttttttttttttttttttttttttttttttttttttttttttt80    ",
"   0ttts:>>=%ett66666666666666666666666666666666666tttttttX0    ",
"   0ttd:,<1,*%rtOOOOOOOOOOOOOOOOOOOOOOOOOOOOOOOOOO+tttttttX0    ",
"   0ttf>4x 4>&qtttttttttttttttttttttttttttttttttttttttttttX0    ",
"   0ttf>2x  >&qt#########wttttttttttttttttttttttttttttttttX0    ",
"   0ttu;35 J $rt@@@@@@@@@wttttttttttttttttttttttttttttttttX0    ",
"   0tttp-> JJ ttttttttttttttttttttttttttttttttttttttttttttX0    ",
"   0ttttp7 JJJ tttttttttttttttttttttttttttttttttttttttttttX0    ",
"   0tttttt JJJJ ttttttttttttttttttttttttttttttttttttttttttX0    ",
"   0tBBBBB JJJJJ BBBBBBBBBBBBBBBBBBBBBBBBBBBBBBBBBBBBBBBBgX0    ",
"   0tHHHHH JJJJJJ HHHHHHHHHHHHHHHHHHHHHHHHHHHHHHHHHHHHHHHhX0    ",
"   0tHHHHH JJJJJJJ HHHHHHHHHHHHHHHHHHHHHHHHHHHHHHHHHHHHHHhX0    ",
"   0tHHGDD JJJJJJJJ DDDDDDDDDDDDDDDDDDDDDDDDDDDDDDDDDGHHHhX0    ",
"   0tHHCll JJJJJJJJJ llllllllllllllllllllllllllllllllmHHHhX0    ",
"   0tHHHHH JJJJJJJJJJ HHHHHHHHHHHHHHHHHHHHHHHHHHHHHHHHHHHhX0    ",
"   0tHHDMM JJJJJJ     MMMMMMMMMMMMFHHMMMMMMMMMGHHHHHHHHHHhX0    ",
"   0tHHSbb JJJ JJ bbCVbbbbbbbbbbbbDHHbbbbbbbbbFHHHHHHHHHHhX0    ",
"   0tHHAvv JJ v JJ vvvvvvvvvvvvvvvvvvvvnAvVNvvvvvbHHHHHHHhX0    ",
"   0tHHDMM J MM JJ MMMMMMMMMMMMMMMMMMMMVDMAZMMMMMNHHHHHHHhX0    ",
"   0tHHHHH  HHHH JJ HHHHHHHHHHHHHHHHHHHHHHHHHHHHHHHHHHHHHhX0    ",
"   0tHHHHHHHHHHH JJ HHHHHHHHHHHHHHHHHHHHHHHHHHHHHHHHHHHHHhX0    ",
"   0tHHHHHHHHHHHH  HHHHHHHHHHHHHHHHHHHHHHHHHHHHHHHHHHHHHHhX0    ",
"   0tHHHHHHHHHHHHHHHHHHHHHHHHHHHHHHHHHHHHHHHHHHHHHHHHHHHHhX0    ",
"   0tHHHHHHHHHHHHHHHHGGGGGGGGGGGGGGGGGGGGGHHHHHHHHHHHHHHHhX0    ",
"   0tHHHHHHHHHHHHHHHHvjkkkkkkkkkkkkkkkkkjcHHHHHHHHHHHHHHHhX0    ",
"   0tHHHHHHHHHHHHHHHHvMHHHHHHHHHHHHHHHHHVcHHHHHHHHHHHHHHHhX0    ",
"   0tHHHHHHHHHHHHHHH    H   HH   HHH  HH   HHHHHHHHHHHHHHhX0    ",
"   0tHHHHHHHHHHHHHHH vMHH HH H HH H HH H cH HHHHHHHHHHHHHhX0    ",
"   0tHHHHHHHHHHHHHHH   HH   HH   HH HH H   HHHHHHHHHHHHHHhX0    ",
"   0tHHHHHHHHHHHHHHH vzvv v vv v vv vv v c HHHHHHHHHHHHHHhX0    ",
"   0tHHHHHHHHHHHHHHH    V VV V VV VV  VV AH HHHHHHHHHHHHHhX0    ",
"   0tHHHHHHHHHHHHHHHHHHHHHHHHHHHHHHHHHHHHHHHHHHHHHHHHHHHHhX0    ",
"   0ahhhhhhhhhhhhhhhhhhhhhhhhhhhhhhhhhhhhhhhhhhhhhhhhhhhho.0    ",
"   008XXXXXXXXXXXXXXXXXXXXXXXXXXXXXXXXXXXXXXXXXXXXXXXXXXX.90    ",
"   000000000000000000000000000000000000000000000000000000000    ",
"   000000000000000000000000000000000000000000000000000000000    ",
"   000000000000000000000000000000000000000000000000000000000    ",
"   000000000000000000000000000000000000000000000000000000000    ",
"   000000000000000000000000000000000000000000000000000000000    ",
"   000000000000000000000000000000000000000000000000000000000    ",
"   000000000000000000000000000000000000000000000000000000000    ",
"   000000000000000000000000000000000000000000000000000000000    ",
"   000000000000000000000000000000000000000000000000000000000    ",
"   000000000000000000000000000000000000000000000000000000000    ",
"                                                                ",
"                                                                ",
"                                                                ",
"                                                                "
};
