/* XPM */
static char *_9bb2cfd723b45f7b0c3ce538451471chFpi9M0eJZHOqCVX[] = {
/* columns rows colors chars-per-pixel */
"64 62 65 1 ",
"  c black",
". c #32435D",
"X c #344460",
"o c #3D4C6A",
"O c #454769",
"+ c #464C72",
"@ c #47517A",
"# c #47537E",
"$ c #78536A",
"% c #68597B",
"& c #994747",
"* c #A54B4B",
"= c #A84B4B",
"- c #935A6F",
"; c #99596C",
": c #855C78",
"> c #C25353",
", c #C25E5F",
"< c #C26264",
"1 c #C26466",
"2 c #C26669",
"3 c #C2696C",
"4 c #C26F72",
"5 c #C27175",
"6 c #495D90",
"7 c #705F85",
"8 c #4E6889",
"9 c #506788",
"0 c #4F6397",
"q c #4A639A",
"w c #4D6399",
"e c #4D649A",
"r c #4B659D",
"t c #556192",
"y c #566396",
"u c #596293",
"i c #586294",
"p c #516398",
"a c #506499",
"s c #61618F",
"d c #5F75A7",
"f c #6178A8",
"g c #A1A8B6",
"h c #A3AAB8",
"j c #A6ADBA",
"k c #A9B0BD",
"l c #C38F97",
"z c #ADB4C2",
"x c #AFB6C4",
"c c #B2B9C7",
"v c #B3BAC8",
"b c #B5BCCA",
"n c #B6BDCC",
"m c #B8BFCD",
"M c #B5BFD3",
"N c #BAC1CF",
"B c #BBC2D1",
"V c #BCC3D2",
"C c #BEC5D3",
"Z c #BFC6D4",
"A c #C0C7D6",
"S c #C1C8D7",
"D c #C3CAD9",
"F c #C5CCDB",
"G c white",
/* pixels */
"                                                                ",
"                                                                ",
"                                                                ",
"   GGGGGGGGGGGGGGGGGGGGGGGGGGGGGGGGGGGGGGGGGGGGGGGGGGGGGGGGG    ",
"   GGGGGGGGGGGGGGGGGGGGGGGGGGGGGGGGGGGGGGGGGGGGGGGGGGGGGGGGG    ",
"   GGGGGGGGGGGGGGGGGGGGGGGGGGGGGGGGGGGGGGGGGGGGGGGGGGGGGGGGG    ",
"   GGGGGGGGGGGGGGGGGGGGGGGGGGGGGGGGGGGGGGGGGGGGGGGGGGGGGGGGG    ",
"   GGGGGGGGGGGGGGGGGGGGGGGGGGGGGGGGGGGGGGGGGGGGGGGGGGGGGGGGG    ",
"   GGGGGGGGGGGGGGGGGGGGGGGGGGGGGGGGGGGGGGGGGGGGGGGGGGGGGGGGG    ",
"   GGGGGGGGGGGGGGGGGGGGGGGGGGGGGGGGGGGGGGGGGGGGGGGGGGGGGGGGG    ",
"   GGGGGGGGGGGGGGGGGGGGGGGGGGGGGGGGGGGGGGGGGGGGGGGGGGGGGGGGG    ",
"   GGGGGGGGGGGGGGGGGGGGGGGGGGGGGGGGGGGGGGGGGGGGGGGGGGGGGGGGG    ",
"   GGGGGGGGGGGGGGGGGGGGGGGGGGGGGGGGGGGGGGGGGGGGGGGGGGGGGGGGG    ",
"   GGrrrrrrrrrrrrrrrrrrrrrrrrrrrrrrrrrrrrrrrrrrrrrrrrrrrrGGG    ",
"   Grrrrauuterrrrrrrrrrrrrrrrrrrrrrrrrrrrrrrrrrrrrrrrrrrrr8G    ",
"   Grrrp:>>=%wrr66666666666666666666666666666666666rrrrrrrXG    ",
"   Grra:,<1,*%erOOOOOOOOOOOOOOOOOOOOOOOOOOOOOOOOOO+rrrrrrrXG    ",
"   Grrs>4l 4>&0rrrrrrrrrrrrrrrrrrrrrrrrrrrrrrrrrrrrrrrrrrrXG    ",
"   Grrs>2l  >&0r#########qrrrrrrrrrrrrrrrrrrrrrrrrrrrrrrrrXG    ",
"   Grry;35 G $er@@@@@@@@@qrrrrrrrrrrrrrrrrrrrrrrrrrrrrrrrrXG    ",
"   Grrri-> GG rrrrrrrrrrrrrrrrrrrrrrrrrrrrrrrrrrrrrrrrrrrrXG    ",
"   Grrrri7 GGG rrrrrrrrrrrrrrrrrrrrrrrrrrrrrrrrrrrrrrrrrrrXG    ",
"   Grrrrrr GGGG rrrrrrrrrrrrrrrrrrrrrrrrrrrrrrrrrrrrrrrrrrXG    ",
"   GrMMMMM GGGGG MMMMMMMMMMMMMMMMMMMMMMMMMMMMMMMMMMMMMMMMdXG    ",
"   GrFFFFF GGGGGG FFFFFFFFFFFFFFFFFFFFFFFFFFFFFFFFFFFFFFFfXG    ",
"   GrFFFFF GGGGGGG FFFFFFFFFFFFFFFFFFFFFFFFFFFFFFFFFFFFFFfXG    ",
"   GrFFDAA GGGGGGGG AAAAAAAAAAAAAAAAAAAAAAAAAAAAAAAAADFFFfXG    ",
"   GrFFBjj GGGGGGGGG jjjjjjjjjjjjjjjjjjjjjjjjjjjjjjjjbFFFfXG    ",
"   GrFFFFF GGGGGGGGGG FFFFFFFFFFFFFFFFFFFFFFFFFFFFFFFFFFFfXG    ",
"   GrFFAnn GGGGGG     nnnnnnnnnnnnSFFnnnnnnnnnDFFFFFFFFFFfXG    ",
"   GrFFZcc GGG GG ccBNccccccccccccAFFcccccccccSFFFFFFFFFFfXG    ",
"   GrFFCxx GG x GG xxxxxxxxxxxxxxxxxxxxvCxNmxxxxxcFFFFFFFfXG    ",
"   GrFFAnn G nn GG nnnnnnnnnnnnnnnnnnnnNAnCVnnnnnmFFFFFFFfXG    ",
"   GrFFFFF  FFFF GG FFFFFFFFFFFFFFFFFFFFFFFFFFFFFFFFFFFFFfXG    ",
"   GrFFFFFFFFFFF GG FFFFFFFFFFFFFFFFFFFFFFFFFFFFFFFFFFFFFfXG    ",
"   GrFFFFFFFFFFFF  FFFFFFFFFFFFFFFFFFFFFFFFFFFFFFFFFFFFFFfXG    ",
"   GrFFFFFFFFFFFFFFFFFFFFFFFFFFFFFFFFFFFFFFFFFFFFFFFFFFFFfXG    ",
"   GrFFFFFFFFFFFFFFFFDDDDDDDDDDDDDDDDDDDDDFFFFFFFFFFFFFFFfXG    ",
"   GrFFFFFFFFFFFFFFFFxghhhhhhhhhhhhhhhhhgzFFFFFFFFFFFFFFFfXG    ",
"   GrFFFFFFFFFFFFFFFFxnFFFFFFFFFFFFFFFFFNzFFFFFFFFFFFFFFFfXG    ",
"   GrFFFFFFFFFFFFFFFFxnFFFFFFFFFFFFFFFFFNzFFFFFFFFFFFFFFFfXG    ",
"   GrFFFFFFFFFFFFFFFFxnFFFFFFFFFFFFFFFFFNzFFFFFFFFFFFFFFFfXG    ",
"   GrFFFFFFFFFFFFFFFFxnFFFFFFFFFFFFFFFFFNzFFFFFFFFFFFFFFFfXG    ",
"   GrFFFFFFFFFFFFFFFFxkxxxxxxxxxxxxxxxxxkzFFFFFFFFFFFFFFFfXG    ",
"   GrFFFFFFFFFFFFFFFFCNNNNNNNNNNNNNNNNNNNCFFFFFFFFFFFFFFFfXG    ",
"   GrFFFFFFFFFFFFFFFFFFFFFFFFFFFFFFFFFFFFFFFFFFFFFFFFFFFFfXG    ",
"   GGffffffffffffffffffffffffffffffffffffffffffffffffffffo.G    ",
"   GG8XXXXXXXXXXXXXXXXXXXXXXXXXXXXXXXXXXXXXXXXXXXXXXXXXXX.9G    ",
"   GGGGGGGGGGGGGGGGGGGGGGGGGGGGGGGGGGGGGGGGGGGGGGGGGGGGGGGGG    ",
"   GGGGGGGGGGGGGGGGGGGGGGGGGGGGGGGGGGGGGGGGGGGGGGGGGGGGGGGGG    ",
"   GGGGGGGGGGGGGGGGGGGGGGGGGGGGGGGGGGGGGGGGGGGGGGGGGGGGGGGGG    ",
"   GGGGGGGGGGGGGGGGGGGGGGGGGGGGGGGGGGGGGGGGGGGGGGGGGGGGGGGGG    ",
"   GGGGGGGGGGGGGGGGGGGGGGGGGGGGGGGGGGGGGGGGGGGGGGGGGGGGGGGGG    ",
"   GGGGGGGGGGGGGGGGGGGGGGGGGGGGGGGGGGGGGGGGGGGGGGGGGGGGGGGGG    ",
"   GGGGGGGGGGGGGGGGGGGGGGGGGGGGGGGGGGGGGGGGGGGGGGGGGGGGGGGGG    ",
"   GGGGGGGGGGGGGGGGGGGGGGGGGGGGGGGGGGGGGGGGGGGGGGGGGGGGGGGGG    ",
"   GGGGGGGGGGGGGGGGGGGGGGGGGGGGGGGGGGGGGGGGGGGGGGGGGGGGGGGGG    ",
"   GGGGGGGGGGGGGGGGGGGGGGGGGGGGGGGGGGGGGGGGGGGGGGGGGGGGGGGGG    ",
"                                                                ",
"                                                                ",
"                                                                ",
"                                                                "
};
