/* XPM */
static char *_6f84a85ad8e451ae8e323c142cc06f6po4oD7jeX8cJhGx4[] = {
/* columns rows colors chars-per-pixel */
"64 62 66 1 ",
"  c black",
". c #32435D",
"X c #344460",
"o c #3D4C6A",
"O c #454769",
"+ c #464C72",
"@ c #47517A",
"# c #47537E",
"$ c #78536A",
"% c #68597B",
"& c #994747",
"* c #A54B4B",
"= c #A84B4B",
"- c #935A6F",
"; c #99596C",
": c #855C78",
"> c #C25353",
", c #C25E5F",
"< c #C26264",
"1 c #C26466",
"2 c #C26669",
"3 c #C2696C",
"4 c #C26F72",
"5 c #C27175",
"6 c #495D90",
"7 c #705F85",
"8 c #4E6889",
"9 c #506788",
"0 c #4F6397",
"q c #4A639A",
"w c #4D6399",
"e c #4D649A",
"r c #4B659D",
"t c #556192",
"y c #566396",
"u c #596293",
"i c #586294",
"p c #516398",
"a c #506499",
"s c #61618F",
"d c #5F75A7",
"f c #6178A8",
"g c #A1A8B6",
"h c #A3AAB8",
"j c #A6ADBA",
"k c #AAB1BF",
"l c #C38F97",
"z c #ADB4C2",
"x c #AFB6C4",
"c c #B2B9C7",
"v c #B3BAC8",
"b c #B5BCCA",
"n c #B6BDCC",
"m c #B8BFCD",
"M c #B5BFD3",
"N c #BAC1CF",
"B c #BBC2D1",
"V c #BCC3D2",
"C c #BEC5D3",
"Z c #BFC6D4",
"A c #99D9EA",
"S c #C0C7D6",
"D c #C1C8D7",
"F c #C3CAD9",
"G c #C5CCDB",
"H c white",
/* pixels */
"                                                                ",
"                                                                ",
"                                                                ",
"   AAAAAAAAAAAAAAAAAAAAAAAAAAAAAAAAAAAAAAAAAAAAAAAAAAAAAAAAA    ",
"   AAAAAAAAAAAAAAAAAAAAAAAAAAAAAAAAAAAAAAAAAAAAAAAAAAAAAAAAA    ",
"   AAAAAAAAAAAAAAAAAAAAAAAAAAAAAAAAAAAAAAAAAAAAAAAAAAAAAAAAA    ",
"   AAAAAAAAAAAAAAAAAAAAAAAAAAAAAAAAAAAAAAAAAAAAAAAAAAAAAAAAA    ",
"   AAAAAAAAAAAAAAAAAAAAAAAAAAAAAAAAAAAAAAAAAAAAAAAAAAAAAAAAA    ",
"   AAAAAAAAAAAAAAAAAAAAAAAAAAAAAAAAAAAAAAAAAAAAAAAAAAAAAAAAA    ",
"   AAAAAAAAAAAAAAAAAAAAAAAAAAAAAAAAAAAAAAAAAAAAAAAAAAAAAAAAA    ",
"   AAAAAAAAAAAAAAAAAAAAAAAAAAAAAAAAAAAAAAAAAAAAAAAAAAAAAAAAA    ",
"   AAAAAAAAAAAAAAAAAAAAAAAAAAAAAAAAAAAAAAAAAAAAAAAAAAAAAAAAA    ",
"   AAAAAAAAAAAAAAAAAAAAAAAAAAAAAAAAAAAAAAAAAAAAAAAAAAAAAAAAA    ",
"   AArrrrrrrrrrrrrrrrrrrrrrrrrrrrrrrrrrrrrrrrrrrrrrrrrrrrAAA    ",
"   Arrrrauuterrrrrrrrrrrrrrrrrrrrrrrrrrrrrrrrrrrrrrrrrrrrr8A    ",
"   Arrrp:>>=%wrr66666666666666666666666666666666666rrrrrrrXA    ",
"   Arra:,<1,*%erOOOOOOOOOOOOOOOOOOOOOOOOOOOOOOOOOO+rrrrrrrXA    ",
"   Arrs>4l 4>&0rrrrrrrrrrrrrrrrrrrrrrrrrrrrrrrrrrrrrrrrrrrXA    ",
"   Arrs>2l  >&0r#########qrrrrrrrrrrrrrrrrrrrrrrrrrrrrrrrrXA    ",
"   Arry;35 H $er@@@@@@@@@qrrrrrrrrrrrrrrrrrrrrrrrrrrrrrrrrXA    ",
"   Arrri-> HH rrrrrrrrrrrrrrrrrrrrrrrrrrrrrrrrrrrrrrrrrrrrXA    ",
"   Arrrri7 HHH rrrrrrrrrrrrrrrrrrrrrrrrrrrrrrrrrrrrrrrrrrrXA    ",
"   Arrrrrr HHHH rrrrrrrrrrrrrrrrrrrrrrrrrrrrrrrrrrrrrrrrrrXA    ",
"   ArMMMMM HHHHH MMMMMMMMMMMMMMMMMMMMMMMMMMMMMMMMMMMMMMMMdXA    ",
"   ArGGGGG HHHHHH GGGGGGGGGGGGGGGGGGGGGGGGGGGGGGGGGGGGGGGfXA    ",
"   ArGGGGG HHHHHHH GGGGGGGGGGGGGGGGGGGGGGGGGGGGGGGGGGGGGGfXA    ",
"   ArGGFSS HHHHHHHH SSSSSSSSSSSSSSSSSSSSSSSSSSSSSSSSSFGGGfXA    ",
"   ArGGBjj HHHHHHHHH jjjjjjjjjjjjjjjjjjjjjjjjjjjjjjjjbGGGfXA    ",
"   ArGGGGG HHHHHHHHHH GGGGGGGGGGGGGGGGGGGGGGGGGGGGGGGGGGGfXA    ",
"   ArGGSnn HHHHHH     nnnnnnnnnnnnDGGnnnnnnnnnFGGGGGGGGGGfXA    ",
"   ArGGZcc HHH HH ccBNccccccccccccSGGcccccccccDGGGGGGGGGGfXA    ",
"   ArGGCxx HH x HH xxxxxxxxxxxxxxxxxxxxvCxNmxxxxxcGGGGGGGfXA    ",
"   ArGGSnn H nn HH nnnnnnnnnnnnnnnnnnnnNSnCVnnnnnmGGGGGGGfXA    ",
"   ArGGGGG  GGGG HH GGGGGGGGGGGGGGGGGGGGGGGGGGGGGGGGGGGGGfXA    ",
"   ArGGGGGGGGGGG HH GGGGGGGGGGGGGGGGGGGGGGGGGGGGGGGGGGGGGfXA    ",
"   ArGGGGGGGGGGGG  GGGGGGGGGGGGGGGGGGGGGGGGGGGGGGGGGGGGGGfXA    ",
"   ArGGGGGGGGGGGGGGGGGGGGGGGGGGGGGGGGGGGGGGGGGGGGGGGGGGGGfXA    ",
"   ArGGGGGGGGGGGGGGGGFFFFFFFFFFFFFFFFFFFFFGGGGGGGGGGGGGGGfXA    ",
"   ArGGGGGGGGGGGGGGGGxghhhhhhhhhhhhhhhhhgzGGGGGGGGGGGGGGGfXA    ",
"   ArGGGGGGGGGGGGGGGGxnGGGGGGGGGGGGGGGGGNzGGGGGGGGGGGGGGGfXA    ",
"   ArGGGGGGGGGGGGGGGGxnGGGGGGGGGGGGGGGGGNzGGGGGGGGGGGGGGGfXA    ",
"   ArGGGGGGGGGGGG   G    GG  GG    GG  GN GG G GGGG     GfXA    ",
"   ArGGGGGGGGGGG GGGG nGGG GGGG GGGG GG N GG G GGGGGG GGGfXA    ",
"   ArGGGGGGGGGGGG  GG   xx x  x   xx    k GG G GGGGGG GGGfXA    ",
"   ArGGGGGGGGGGGGGG G NNNN NN N NNNN NN N GG G GGGGGG GGGfXA    ",
"   ArGGGGGGGGGGG   GG    GG  GG GGGG GG GG  GG    GGG GGGfXA    ",
"   AAffffffffffffffffffffffffffffffffffffffffffffffffffffo.A    ",
"   AA8XXXXXXXXXXXXXXXXXXXXXXXXXXXXXXXXXXXXXXXXXXXXXXXXXXX.9A    ",
"   AAAAAAAAAAAAAAAAAAAAAAAAAAAAAAAAAAAAAAAAAAAAAAAAAAAAAAAAA    ",
"   AAAAAAAAAAAAAAAAAAAAAAAAAAAAAAAAAAAAAAAAAAAAAAAAAAAAAAAAA    ",
"   AAAAAAAAAAAAAAAAAAAAAAAAAAAAAAAAAAAAAAAAAAAAAAAAAAAAAAAAA    ",
"   AAAAAAAAAAAAAAAAAAAAAAAAAAAAAAAAAAAAAAAAAAAAAAAAAAAAAAAAA    ",
"   AAAAAAAAAAAAAAAAAAAAAAAAAAAAAAAAAAAAAAAAAAAAAAAAAAAAAAAAA    ",
"   AAAAAAAAAAAAAAAAAAAAAAAAAAAAAAAAAAAAAAAAAAAAAAAAAAAAAAAAA    ",
"   AAAAAAAAAAAAAAAAAAAAAAAAAAAAAAAAAAAAAAAAAAAAAAAAAAAAAAAAA    ",
"   AAAAAAAAAAAAAAAAAAAAAAAAAAAAAAAAAAAAAAAAAAAAAAAAAAAAAAAAA    ",
"   AAAAAAAAAAAAAAAAAAAAAAAAAAAAAAAAAAAAAAAAAAAAAAAAAAAAAAAAA    ",
"   AAAAAAAAAAAAAAAAAAAAAAAAAAAAAAAAAAAAAAAAAAAAAAAAAAAAAAAAA    ",
"                                                                ",
"                                                                ",
"                                                                ",
"                                                                "
};
