/* XPM */
static char *_b14d45144594ca0a1d95fa127ca5c1floSh4N4Ly66KvK2G[] = {
/* columns rows colors chars-per-pixel */
"64 64 5 1 ",
"  c black",
". c #464646",
"X c #22B14C",
"o c #A8E61D",
"O c #B4B4B4",
/* pixels */
"OOOOOOOOOOOOOOOOOOOOOOOOOOOOOOOOOOOOOOOOOOOOOOOOOOOOOOOOOOOOOOOO",
"OOOOOOOOOOOOOOOOOOOOOOOOOOOOOOOOOOOOOOOOOOOOOOOOOOOOOOOOOOOOOOOO",
"OOOOOOOOOOOOOOOOOOOOOOOOOOOOOOOOOOOOOOOOOOOOOOOOOOOOOOOOOOOOOOOO",
"OOOOOOOOOOOOOOOOOOOOOOOOOOOOOOOOOOOOOOOOOOOOOOOOOOOOOOOOOOOOOOOO",
"OOOOOOOOOOOOOOOOOOOOOOOOOOOOOOOOOOOOOOOOOOOOOOOOOOOOOOOOOOOOOOOO",
"OOOOOOOOOoooooooooooooooooooooooooooooooooooooooooooooOOOOOOOOOO",
"OOOOOOOOOoXXXXXXXXXXXXXXXXXXXXXXXXXXXXXXXXXXXXXXXXXXXoOOOOOOOOOO",
"OOOOOOOOOoXXXXXXXXXXXXXXXXXXXXXXXXXXXXXXXXXXXXXXXXXXXoOOOOOOOOOO",
"OOOOOOOOOoXXXXXXXXXXXXXXXXXXXXXXXXXXXXXXXXXXXXXXXXXXXoOOOOOOOOOO",
"OOOOOOOOOoXXXXXXXXXXXXXXXXXXXXXXXXXXXXXXXXXXXXXXXXXXXoOOOOOOOOOO",
"OOOOOOOOOoXXXXXXXXXXXXXXXXXXXXXXXXXXXXXXXXXXXXXXXXXXXoOOOOOOOOOO",
"OOOOOOOOOoXXXXX   XX XXXXX XXX XX     XXXXXXXXXXXXXXXoOOOOOOOOOO",
"OOOOOOOOOoXXXXX XXXXX XXX XXXX XXXX XXXXXXXXXXXXXXXXXoOOOOOOOOOO",
"OOOOOOOOOoXXXXX XXXXXX X XXXXX XXXX XXXXXXXXXXXXXXXXXoOOOOOOOOOO",
"OOOOOOOOOoXXXXX   XXXXX XXXXXX XXXX XXXXXXXXXXXXXXXXXoOOOOOOOOOO",
"OOOOOOOOOoXXXXX XXXXXX X XXXXX XXXX XXXXXXXXXXXXXXXXXoOOOOOOOOOO",
"OOOOOOOOOoXXXXX XXXXX XXX XXXX XXXX XXXXXXXXXXXXXXXXXoOOOOOOOOOO",
"OOOOOOOOOoXXXXX   XX XXXXX XXX XXXX XXXXXXXXXXXXXXXXXoOOOOOOOOOO",
"OOOOOOOOOoXXXXXXXXXXXXXXXXXXXXXXXXXXXXXXXXXXXXXXXXXXXoOOOOOOOOOO",
"OOOOOOOOOoXXXXXXXXXXXXXXXXXXXXXXXXXXXXXXXXXXXXXXXXXXXoOOOOOOOOOO",
"OOOOOOOOOoXXXXXXXXXXXXXXXXXXXXXXXXXXXXXXXXXXXXXXXXXXXoOOOOOOOOOO",
"OOOOOOOOOoXXXXXXXXXXXXXXXXXXXXXXXXXXXXXXXXXXXXXXXXXXXoOOOOOOOOOO",
"OOOOOOOOOoXXXXXXXXXXXXXXXXXXXXXXXXXXXXXXXXXXXXXXXXXXXoOOOOOOOOOO",
"OOOOOOOOOoXXXXXXXXXXXXXXXXXXXXXXXXXXXXXXXXXXXXXXXXXXXoOOOOOOOOOO",
"OOOOOOOOOoXXXXXXXXXXXXXXXXXXXXXXXXXXXXXXXXXXXXXXXXXXXoOOOOOOOOOO",
"OOOOOOOOOoXXXXXXXXXXXXXXXXXXXXXXXXXXXXXXXXXXXXXXXXXXXoOOOOOOOOOO",
"OOOOOOOOOoXXXXXXXXXXXXXXXXXXXXXXXXXXXXXXXXXXXXXXXXXXXoOOOOOOOOOO",
"OOOOOOOOOoXXXXXXXXXXXXXXXXXXXXXXXXXXXXXXXXXXXXXXXXXXXoOOOOOOOOOO",
"OOOOOOOOOoXXXXXXXXXXXXXXXXXXXXXXXXXXXXXXXXXXXXXXXXXXXoOOOOOOOOOO",
"OOOOOOOOOoXXXXXXXXXXXXXXXXXXXXXXXXXXXXXXXXXXXXXXXXXXXoOOOOOOOOOO",
"OOOOOOOOOoXXXXXXXXXXXXXXXXXXXXXXXXXXXXXXXXXXXXXXXXXXXoOOOOOOOOOO",
"OOOOOOOOOoXXXXXXXXXXXXXXXXXXXXXXXXXXXXXXXXXXXXXXXXXXXoOOOOOOOOOO",
"OOOOOOOOOoXXXXXXXXXXXXXXXXXXXXXXXXXXXXXXXXXXXXXXXXXXXoOOOOOOOOOO",
"OOOOOOOOOoXXXXXXXXXXXXXXXXXXXXXXXXXXXXXXXXXXXXXXXXXXXoOOOOOOOOOO",
"OOOOOOOOOoXXXXXXXXXXXXXXXXXXXXXXXXXXXXXXXXXXXXXXXXXXXoOOOOOOOOOO",
"OOOOOOOOOoXXXXXXXXXXXXXXXXXXXXXXXXXXXXXXXXXXXXXXXXXXXoOOOOOOOOOO",
"OOOOOOOOOoXXX...........XXXXXXXXXXXXXXXXXXXXXXXXXXXXXoOOOOOOOOOO",
"OOOOOOOOOoXX............XXXXXXXXXXXXXXXXXXXXXXXXXXXXXoOOOOOOOOOO",
"OOOOOOOOOoXX...XXXXXXXXXXXXXXXXXXXXXXXXXXXXXXXXXXXXXXoOOOOOOOOOO",
"OOOOOOOOOoXXX.XXXXXXXXXXXXXXXXXXXXXXXXXXXXXXXXXXXXXXXoOOOOOOOOOO",
"OOOOOOOOOoXXXXXXXXXXXXXXXXXXXXXXXXXXXXXXXXXXXXXXXXXXXoOOOOOOOOOO",
"OOOOOOOOOoXXXXXXXXXXXXXXXXXXXXXXXXXXXXXXXXXXXXXXXXXXXoOOOOOOOOOO",
"OOOOOOOOOoXXXXXXXXXXXXXXXXXXXXXXXXXXXXXXXXXXXXXXXXXXXoOOOOOOOOOO",
"OOOOOOOOOoXXXXXXXXXXXXXXXXXXXXXXXXXXXXXXXXXXXXXXXXXXXoOOOOOOOOOO",
"OOOOOOOOOoXXXXXXXXXXXXXXXXXXXXXXXXXXXXXXXXXXXXXXXXXXXoOOOOOOOOOO",
"OOOOOOOOOoXXXXXXXXXXXXXXXXXXXXXXXXXXXXXXXXXXXXXXXXXXXoOOOOOOOOOO",
"OOOOOOOOOoXXXXXXXXXXXXXXXXXXXXXXXXXXXXXXXXXXXXXXXXXXXoOOOOOOOOOO",
"OOOOOOOOOoXXXXXXXXXXXXXXXXXXXXXXXXXXXXXXXXXXXXXXXXXXXoOOOOOOOOOO",
"OOOOOOOOOoXXXXXXXXXXXXXXXXXXXXXXXXXXXXXXXXXXXXXXXXXXXoOOOOOOOOOO",
"OOOOOOOOOoXXXXXXXXXXXXXXXXXXXXXXXXXXXXXXXXXXXXXXXXXXXoOOOOOOOOOO",
"OOOOOOOOOoXXXXXXXXXXXXXXXXXXXXXXXXXXXXXXXXXXXXXXXXXXXoOOOOOOOOOO",
"OOOOOOOOOoXXXXXXXXXXXXXXXXXXXXXXXXXXXXXXXXXXXXXXXXXXXoOOOOOOOOOO",
"OOOOOOOOOoXXXXXXXXXXXXXXXXXXXXXXXXXXXXXXXXXXXXXXXXXXXoOOOOOOOOOO",
"OOOOOOOOOoXXXXXXXXXXXXXXXXXXXXXXXXXXXXXXXXXXXXXXXXXXXoOOOOOOOOOO",
"OOOOOOOOOoXXXXXXXXXXXXXXXXXXXXXXXXXXXXXXXXXXXXXXXXXXXoOOOOOOOOOO",
"OOOOOOOOOoXXXXXXXXXXXXXXXXXXXXXXXXXXXXXXXXXXXXXXXXXXXoOOOOOOOOOO",
"OOOOOOOOOoXXXXXXXXXXXXXXXXXXXXXXXXXXXXXXXXXXXXXXXXXXXoOOOOOOOOOO",
"OOOOOOOOOoXXXXXXXXXXXXXXXXXXXXXXXXXXXXXXXXXXXXXXXXXXXoOOOOOOOOOO",
"OOOOOOOOOoXXXXXXXXXXXXXXXXXXXXXXXXXXXXXXXXXXXXXXXXXXXoOOOOOOOOOO",
"OOOOOOOOOoXXXXXXXXXXXXXXXXXXXXXXXXXXXXXXXXXXXXXXXXXXXoOOOOOOOOOO",
"OOOOOOOOOoXXXXXXXXXXXXXXXXXXXXXXXXXXXXXXXXXXXXXXXXXXXoOOOOOOOOOO",
"OOOOOOOOOoXXXXXXXXXXXXXXXXXXXXXXXXXXXXXXXXXXXXXXXXXXXoOOOOOOOOOO",
"OOOOOOOOOoXXXXXXXXXXXXXXXXXXXXXXXXXXXXXXXXXXXXXXXXXXXoOOOOOOOOOO",
"OOOOOOOOOoXXXXXXXXXXXXXXXXXXXXXXXXXXXXXXXXXXXXXXXXXXXoOOOOOOOOOO"
};
