/* XPM */
static char *pixil_frame_0_24_1713969730[] = {
/* columns rows colors chars-per-pixel */
"64 64 20 1 ",
"  c #376829",
". c #337B3A",
"X c #5B750B",
"o c #E37475",
"O c #3C8B43",
"+ c #469D4E",
"@ c #4FAC57",
"# c #67B86E",
"$ c #FBD54E",
"% c #FEE854",
"& c #FEEC68",
"* c #8E8E8E",
"= c #ED9A9A",
"- c #81C486",
"; c #ACD285",
": c #A4D4A7",
"> c #FEEF80",
", c #FEF3A2",
"< c #B5A5D5",
"1 c #FEF8C6",
/* pixels */
"<<<<<<<<<<<<<<<<<<<<<<<<<<<<<<<<<<<<<<<<<<<<<<<<<<<<<<<<<<<<<<<<",
"<<<<<<<<<<*<<<<<<<<<<<<<<<<<<<<<<<<<<<<<<<<<<<<<<<<<<<<<<<<<<<<<",
"<<<<<<<<*<<<<<<<<<<<<<<<<<<<<<<<<<<<<<<<<<<<<<<<<<<<<<<<<<<<<<<<",
"<<<<<<<<<<<<<<<<<<<<<<<<<<<<<<<<<<<<<<<<<<<<<<<<<<<<<<<<<<<<<<<<",
"<<<<<<<<<<<<<<<<<<<<<<<<<<<<<<<<<<<<<<<<<<<<<<<<<<<<<<<<<<<<<<<<",
"<<<<<<<<<<<<<<<<<<<<<<<<<<<<<<<<<<<<<<<<<<<<<<<<<<<<<<<<<<<<<<<<",
"<<<<<<<<<<<<<<<<<<<<<<<<<<<<<<<<<<<<<<<<<<<<<<<<<<<<<<<<<<<<<<<<",
"<<<<<<<<<<<<<<<<<<<<<<<<<<<<<<<<<<<<<<<<<<<<<<<<<<<<<<<<<<<<<<<<",
"<<<<<<<<<<<<<<<<<<<<<<<<<<<<<<<<<<<<<<<<<<<<<<<<<<<<<<<<<<<<<<<<",
"<<<<<<<<<<<<<<<<<<<<<<<<<<<<<<<<<<<<<<<<<<<<<<<<<<<<<<<<<<<<<<<<",
"<<<<<<<<<<<<<<<<<<<<<<<<<<<<<<<<<<<<<<<<<<<<<<<<<<<<<<<<<<<<<<<<",
"<<<<<<<<<<<<<<<<<<<<<<<<<<<<<<<<<<<<<<<<<<<<<<<<<<<<<<<<<<<<<<<<",
"<<<<<<<<<<<<<<<<<<<<<<<<<<<<<<<<<<<<<<<<<<<<<<<<<<<<<<<<<<<<<<<<",
"<<<<<<<<<<<<<<<<<<<<<<<<<<<<<<<<<<<<<<<<<<<<<<<<<<<<<<<<<<<<<<<<",
"<<<<<<<<<<<<<<<<<<<<<<<<<<<<<<<<<<<<<<<<<<<<<<<<<<<<<<<<<<<<<<<<",
"<<<<<<<<<<<<<<<<<<<<<<<<<<<<<<<<<<<<<<<<<<<<<<<<<<<<<<<<<<<<<<<<",
"<<<<<<<<<<<<<<<<<<<<<<<<<<<<<<<<<<<<<<<<<<<<<<<<<<<<<<<<<<<<<<<<",
"<<<<<<<<<<<<<<<<<<<<<<<<<<<<<<<<<<<<<<<<<<<<<<<<<<<<<<<<<<<<<<<<",
"<<<<<<<<<<<<<<<<<<<<<<<<<<<<<<<<<<<<<<<<<<<<<<<<<<<<<<<<<<<<<<<<",
"<<<<<<<<<<<<<<<<<<<<<<<<<<<<<<<<<<<<<<<<<<<<<<<<<<<<<<<<<<<<<<<<",
"<<<<<<<<<<<<<<<<<<<<<<<<<<<<<<<<<<<<<<<<<<<<<<<<<<<<<<<<<<<<<<<<",
"<<<<<<<<<<<<<<<<<<<<<<<<<<<<<<<<<<<<<<<<<<<<<<<<<<<<<<<<<<<<<<<<",
"<<<<<<<<<<<<<<<<<<<<<<<<<<<<<<<<<<<<<<<<<<<<<<<<<<<<<<<<<<<<<<<<",
"<<<<<<<<<<<<<<<<<<<<<<<<<<<<<<<<<<<<<<<<<<<<<<<<<<<<<<<<<<<<<<<<",
"<<<<<<<<<<<<<<<<<<<<<<<<<<<<<<<<<<<<<<<<<<<<<<<<<<<<<<<<<<<<<<<<",
"<<<<<<<<<<<<<<<<<<<<<<<<<<<<<<<<<<<<<<<<<<<<<<<<<<<<<<<<<<<<<<<<",
"<<<<<<<<<<<<<<<<<<<<<<<<<<<<<<<<<<<<<<<<<<<<<<<<<<<<<<<<<<<<<<<<",
"<<<<<<<<<<<<<<<<<<<<<<<<<<<<<<<<<<<<<<<<<<<<<<<<<<<<<<<<<<<<<<<<",
"<<<<<<<<<<<<<<<<<<<<<<<<<<<<<<<<<<<<<<<<<<<<<<<<<<<<<<<<<<<<<<<<",
"<<<<<<<<<<<<<<<<<<<<<<<<<<<<<<<<<<<<<<<<<<<<<<<<<<<<<<<<<<<<<<<<",
"<<<<<<<<<<<<<<<<<<<<<<<<<<<<<<<<<<<<<<<<<<<<<<<<<<<<<<<<<<<<<<<<",
"<<<<<<<<<<<<<<<<<<<<<<<<<<<<<<<<<<<<<<<<<<<<<<<<<<<<<<<<<<<<<<<<",
"<<<<<<<<<<<<<<<<<<<<<<<<<<<<<<<<<<<<<<<<<<<<<<<<<<<<<<<<<<<<<<<<",
"<<<<<<<<<<<< <<<<<<<<<<<<<<<<<<<<<<<<<<<<<<<<<<<<<<<<<<<<<<<<<<<",
"<<<<<<<<;<<  <<<<<<<<<<<<<<<<<<<<<<<<<<<<<<<<<<<< <<<<<<<<<<<<<<",
"<<<<<<<;;<   <<<<<<<<<<<<<<<<<<<<<<<<<<<<<<<<;<<  <<<<<<<<<<<<<<",
"<<<<<<<;;<  <<<<<<<<<<<<<<<<<<<<<<<<<<<<<<<<;;<   <<<<<<<<<<<<<<",
"<<<<<<<<;< <<<<<<<<<<<<<<<<<<<<<<<<<<<<<<<<<;;<  <<<<<<<<<<<<<<<",
"<<<<<<<<<;  <<<<<<<<<<<<<<<<<<<<<<<<<<<<<<<<<;< <<<<<<<<<<<<<<<<",
"<<<<<<<<<<< <<<<<<<<<<<<<<<<<<<<<<<<<<<<<<<<<<;  <<<<<<<<<<<<<<<",
"<<<<<<<<<<<< <<<<<<<<<<<<<<<<<<<<<<<<<<<<<<<<<<< <<<<<<<<<<<<<<<",
"<<<<<<<oo<<< <<<<;<<<<<<<<<<<<<<<<<<<<<<<<<<<<<<< <<<<<<<<<<<<<<",
"<<<<<<=oooo<< <<;;<<<<<<<<<<<<<<<<<<<<<<<<<<oo<<< <<<<;<<<<<<<<<",
"<<<<<==ooooo< <;;;<<<<<<<<<<<<<<<<<<<<<<<<<=oooo<< <<;;<<<<<<<<<",
"<<<<<===ooo < <;;<<<<<<<<<<<<<<<<<<<<<<<<<==ooooo< <;;;<<<<<<<<<",
"<<<<<<=== o < <;<<<<<<<<<<<<<<<<<<<<<<<<<<===ooo < <;;<<<<<<<<<<",
"<<<<<<====  < ;<   <<<<<<<<<<<<<<<<<<<<<<<<=== o < <;<<<<<<<<<<<",
"<<<<<<<=      <   <<<<<<<<<<<<<<<<<<<<<<<<<====  < ;<   <<<<<<<<",
"<<<<<<<<<<<<   <<<<<<<<<<<<<<<<<<<<<<<<<<<<<=      <   <<<<<<<<<",
"<<<<<<<<<<<< <<<<<<<<<<<<<<<<<<<<<<<<<<<<<<<<<<<<   <<<<<<<<<<<<",
"<<<<<<<<<<< <<<<<<<<<<<<<<<<<<11<<<<<<<<<<<<<<<<< <<<<<<<<<<<<<<",
"<<<<<<;<<<< <<<==<<<<<<<<<<<<1,>1<<<<<<<<<<<<<<< <<<<<<<<<<<<<<<",
"<<<<<<;;<< <<====o<<<<<<<<<<1>1,>1<<<<<<<<<;<<<< <<<==<<<<<<<<<<",
"<<<<<<;;;< <=====oo<<<<<<<<<>,><1><<<<<<<<<;;<< <<====o<<<<<<<<<",
"<<<<<<<;;< < ===ooo<<<<<<<<<%&%$>$<<<<<<<<<;;;< <=====oo<<<<<<<<",
"<<<<<<<<;< < = ooo<<<<<<<<<<<%-:$<<<<<<<<<<<;;< < ===ooo<<<<<<<<",
"<<<<<   <; <  oooo<<<<<<<<<<<<#<<<<<<<<<<<<<<;< < = ooo<<<<<<<<<",
"<<<<<<   <      o<<<<<<<<<<X<<+#<<<<<<<<<<   <; <  oooo<<<X<<<<<",
"<<<<<<<<<   <<<<<<<<<<<X<<X-X#<@+<<<<<<<<<<   <      oX<<XXX<<<<",
"<<<<<<<<<<X  <X<<<<X<<X<X<X-#X<+<<<<<<<<<X<<<X   <X<<X<X<X<<X<<<",
"<<<<<<<<X<<X X<X<<<<<X<<XXX<X#<+<<<<<<<X<<X<X<X<  <<X<<XXX<XX<<<",
"<<<<<<X<X<XX X<<X<X<XX<XXXXXX.#OO.<<<X<X<XX<X<<X< <XX<XXXXXXX<<<",
"<<X<<<<X<X<<XX<XX<XXXXXXXXXX.O.@OX<<<<X<X<<XX<XX< XXXXXXXXXXXXX<",
"X<<X<X<X<XXXXXXXXXXXXXXXXXXXXXX..<X<X<X<XXXXXXXXX XXXXXXXXXXXXXX"
};
