/* XPM */
static char *fcd80b793ee449dbd474f28c47e4616ad2q3s5p8747Wp0Uf[] = {
/* columns rows colors chars-per-pixel */
"64 64 16 1 ",
"  c black",
". c #151D24",
"X c #1D443A",
"o c #295C46",
"O c #367349",
"+ c #458C48",
"@ c #6EA552",
"# c #A1BF5E",
"$ c #6F3198",
"% c #3F74A9",
"& c #7B44A2",
"* c #936CB7",
"= c #57ABC8",
"- c #A992CB",
"; c #B5A5D5",
": c #CDF0F3",
/* pixels */
"$$$$$$$$$$$$$$$$$$$$$$$$$$$$$$$$$$$$$$$$$$$$$$$$$$$$$$$$$$$$$$$$",
"$$$$$$$$$$$$$$$$$$$$$$$$$$$$$$$$$$$$$$$$$$$$$$$$$$$$$$$$$$$$$$$$",
"$$$$$$$$$$$$$$$$$$$$$$$$$$$$$$$$$$$$$$$$$$$$$$$$$$$$$$$$$$$$$$$$",
"$$$$$$$$$$$$$$$$$$$$$$$$$$$$$$$$$$$$$$$$$$$$$$$$$$$$$$$$$$$$$$$$",
"$$$$$$$$$$$$$$$$$$$$$$$$$$$$       $$$$$$$$$$$$$$$$$$$$$$$$$$$$$",
"$$$$$$$$$$$$$$$$$$$$$$$$$   OX@@@@@   $$$$$$$$$$$$$$$$$$$$$$$$$$",
"$$$$$$$$$$$$$$$$$$$$$$$$ OOOOOX@@@@@@@ $$$$$$$$$$$$$$$$$$$$$$$$$",
"$$$$$$$$$$$$$$$$$$$$$$$ OOOOOOX@@@@@@@o $$$$$$$$$$$$$$$$$$$$$$$$",
"$$$$$$$$$$$$$$$$$$$$$$ OOOOOOOX@@@@@@@oO $$$$$$$$$$$$$$$$$$$$$$$",
"$$$$$$$$$$$$$$$$$$$$$ OOOOOOOX@@@@@@@@@oo $$$$$$$$$$$$$$$$$$$$$$",
"$$$$$$$$$$$$$$$$$$$$ XOOOOOOOX@@@@@X@@@@@@ $$$$$$$$$$$$$$$$$$$$$",
"$$$$$$$$$$$$$$$$$$$ @@XXOOOXX@@@@@@@@@@@@@@ $$$$$$$$$$$$$$$$$$$$",
"$$$$$$$$$$$$$$$$$$$ @@@@XXX@@@@@@@@@@@@@@@@ $$$$$$$$$$$$$$$$$$$$",
"$$$$$$$$$$$$$$$$$$$ @@@@@@@@@@@@@@@@@@@@@@@ $$$$$$$$$$$$$$$$$$$$",
"$$$$$$$$$$$$$$$$$$ @@@@@@@@@@@@@@@@@@@@@@@@o $$$$$$$$$$$$$$$$$$$",
"$$$$$$$$$$$$$$$$$$ @@@@@@@@@@@@@@@@@@@@@@@oO $$$$$$$$$$$$$$$$$$$",
"$$$$$$$$$$$$$$$$$$ @@@@@@@: @@@@@@: @@@@@oOO $$$$$$$$$$$$$$$$$$$",
"$$$$$$$$$$$$$$$$$$ @X@@@@@  @@  @@  @@@@@oOO $$$$$$$$$$$$$$$$$$$",
"$$$$$$$$$$$$$$$$$$ @@@@@@@@@@@  @@@@@@@@@oOO $$$$$$$$$$$$$$$$$$$",
"$$$$$$$$$$$$$$$$$$ @@@@@@@@@@@@@@@@@@@@@@@oO $$$$$$$$$$$$$$$$$$$",
"$$$$$$$$$$$$$$$$$$ @@@@@@@@@@@@@@@@@@@@@@@@o $$$$$$$$$$$$$$$$$$$",
"$$$$$$$$$$$$$$$$$$$ @@@@@@@@@@@@@@@@@@@@X@@ $$$$$$$$$$$$$$$$$$$$",
"$$$$$$$$$$$$$$$$$$$ @@@@@@@@@@@@@@@@@@@@@@@ $$$$$$$$$$$$$$$$$$$$",
"$$$$$$$$$$$$$$$$$$$ @@@@@@@@@@@@@@@@@@@@@@@ $$$$$$$$$$$$$$$$$$$$",
"$$$$$$$$$$$$$$$$$$$$ @@@@@@@@@@@@@@@@@@@@@ $$$$$$$$$$$$$$$$$$$$$",
"$$$$$$$$$$$$$$$$$$$$$ @@@@@@@@@@@@@@@@@@@ $$$$$$$$$$$$$$$$$$$$$$",
"$$$$$$$$$$$$$$$$$$$$$$ @@@@@@@@@@@@@@@@@ $$$$$$$$$$$$$$$$$$$$$$$",
"$$$$$$$$$$$     $$$$$$$ @@@@@@@@@@@@@@@ $$$$$$$     $$$$$$$$$$$$",
"$$$$$$$$$$ =%=%= $$$$$$$ @@@@@@@@@@@@@ $$$$$$$ %=%#@ $$$$$$$$$$$",
"$$$$$$$$$ =%##  $$$$$$$$ @@@@@@@@@@@@@ $$$$$$$$  =#@@ $$$$$$$$$$",
"$$$$$$$$ =%#@ $$$$$$$$$$$ @@@@@@@@@@@ $$$$$$$$$$$ %#@@ $$$$$$$$$",
"$$$$$$$$ %#@ $$$$$$$$$$$$ @@@@@@@@@@@ $$$$$$$$$$$$ #@@ $$$$$$$$$",
"$$$$$$$$ =#@ $$$$$$$$$$$ @@@@@@@@@@@@@ $$$$$$$$$$$ @@# $$$$$$$$$",
"$$$$$$$$ %#@ $$$$$$$$$$$ @@@@@@@@@@@@@ $$$$$$$$$$$ @#% $$$$$$$$$",
"$$$$$$$$ =%#+ $$$$$$$$$ @@@@@@@@@@@@@@@ $$$$$$$$$ @@#= $$$$$$$$$",
"$$$$$$$$$ =%#@ $$$$$$$ @@@@@@@@@@@@@@@@@ $$$$$$$ @@#% $$$$$$$$$$",
"$$$$$$$$$$ =#@@  $$$  @@@@@@@@@@@@@@@@@@@  $$$  @@#= $$$$$$$$$$$",
"$$$$$$$$$$ %=#@@@   @##=@@@@@@@@@@@@@@@@@@@   @@@#=% $$$$$$$$$$$",
"$$$$$$$$$$$ %=#@@@@##=%.@@@@@@@@@@@@@@@@@@@@@@@@@#% $$$$$$$$$$$$",
"$$$$$$$$$$$$ %...@#=%..@##@@@@@@@@@@@@@@@@@@@@@##% $$$$$$$$$$$$$",
"$$$$$$$$$$$$$.@@##%..@##%=.@@@@@@@@@@@@@@@......%=.$$$$$$$$$$$$$",
"$$$$$$$$$$$$.@@#%=.@@#=%=.$.@@@@@@@@@@@@@@@@@@@@..$$$$$$$$$$$$$$",
"$$$$$$$$$$$$.@#=..@@#=%..$$$.@@@.@@@@@@@@@@@@@@@@@.$$$$$$$$$$$$$",
"$$$$$$$$$$$$.#%.$.@#=%.$$$$$.@@#=.@@@@@@@@@@@###@@@.$$$$$$$$$$$$",
"$$$$$$$$$$..@#=.$.@#%.$$$$$$$.@#%.@@@@@@@@@@@.=%#@@.$$$$$$$$$$$$",
"$$$$$$$$$.@@#%.$$$.#=.$$$$$$$.@#=%.##@@@###@@...=#@@.$$$$$$$$$$$",
"$$$$$$$$$$....$$$$.#%=....$$$$.@#=.%=#@..%=#@.$$.%#@.$$$$$$$$$$$",
"$$$$$$$$$$$$$$$$$$$.#%=%=%.$$.@@#%..%#@.$.%=#..$.=#@.$$$$$$$$$$$",
"$$$$$$$$$$$$$$$$$$$.+###..$$$.@#%=.$.=#@.$.%#@.$$.%#@.$$$$$$$$$$",
"$$$$$$$$$$$$$$$$$$$$....$$$$.@#%=.$$$.%#.$.=##@.$.=#@.$$$$$$$$$$",
"$$$$$$$$$$$$$$$$$$$$$$$$$$$$.#%=.$$$$.=#.$$.%=#.$$.%#@.$$$$$$$$$",
"$$$$$$$$$$$$$$$$$$$$$$$$$...#%=..$$$$$.%#.$$.%#@.$$.=#.$$$$$$$$$",
"$$$$$$$$$$$$$$$$$$$$$$$$.@#=%=.$$$$$$$.=#.$$.=##.$$$.%.$$$$$$$$$",
"$$$$$$$$$$$$$$$$$$$$$$$$$.....$$$$$$$$$.%.$$$.%=#.$$$.$$$$$$$$$$",
"$$$$$$$$$$$$$$$$$$$$$$$$$$$$$$$$$$$$$$$.=.$$$$.%#.$$$.$$$$$$$$$$",
"$$$$$$$$$$$$$$$$$$$$$$$$$$$$$$$$$$$$$$$.%.$$$$.=%#.$$$$$$$$$$$$$",
"$$$$$$$$$$$$$$$$$$$$$$$$$$$$$$$$$$$$$$$$.$$$$$$.=%#....$$$$$$$$$",
"$$$$$$$$$$$$$$$$$$$$$$$$$$$$$$$$$$$$$$$$$$$$$$$$.=#%=%#.$$$$$$$$",
"$$$$$$$$$$$$$$$$$$$$$$$$$$$$$$$$$$$$$$$$$$$$$$$$..%=...$$$$$$$$$",
"&&&&&&&&&&&&&&&&&&&&&&&&&&&&&&&&&&&&&&&&&&&&&&&&&&..&&&&&&&&&&&&",
"****************************************************************",
"----------------------------------------------------------------",
";;;;;;;;;;;;;;;;;;;;;;;;;;;;;;;;;;;;;;;;;;;;;;;;;;;;;;;;;;;;;;;;",
";;;;;;;;;;;;;;;;;;;;;;;;;;;;;;;;;;;;;;;;;;;;;;;;;;;;;;;;;;;;;;;;"
};
