/* XPM */
static char *pixil_frame_0_23_1713969730[] = {
/* columns rows colors chars-per-pixel */
"64 64 13 1 ",
"  c black",
". c #130D21",
"X c #084C42",
"o c #A04D47",
"O c #F24942",
"+ c #248649",
"@ c #4FAC57",
"# c #B1CA35",
"$ c #D58044",
"% c #FEE854",
"& c #F1C491",
"* c #B5A5D5",
"= c #FBFFF2",
/* pixels */
"****************************************************************",
"*******************************X********************************",
"******************************XXX*******************************",
"*****************************X#X#X******************************",
"******************XXXXXX*****X#+#X*****XXXXXXX******************",
"***************XXX######XX***X###X****X####X+#XX****************",
"**************XX#+.XXX####X***X#X***XX###XXXX.++X***************",
"****************...########XX*X.X*XX####X#.......***************",
"*******************..###XX###XXXXX###+XX..**********************",
"********************.#.XX+###XXXXX###+XX.***********************",
"*********************...XXX+X#...#X#XXX.************************",
"************************...+XXX.XXX#X..****XXXX*****************",
"**************XX####X*#.....+++.+++.....**X####XXXX*************",
"************XX##XX####X#.....++.++.....XX########X#X************",
"***********X#+##XX####+###...+#.++....##X########X##X***********",
"**********X###+XX+#X#X####....=&$....####+#XX#X.X####X**********",
"*********X##X...XX.+XX#X###.=$.$..=$++#X#.+X..+...+###X*********",
"*********X#...*.......#XXX.$&$oo.$&$o.XX#.......*....#X*********",
"********XX..***.**.........o$o...o$o........*********.X*********",
"********X.**********....==$o.=$o..oX.=&o...***********.*********",
"********.***********...$==$o.=$o.....=&o...*********************",
"****************XXXXXXX$$$$.$=$o....$$$oXXXXXXX*****************",
"**************XX###+++X.ooo.$$o.o=$.oooX.+++###XX***************",
"*************X###+XX+........o..o&$o......+XXX###X**************",
"************X##XXX.X+...+++X.....oo.XXX...+...XX##X*************",
"***********X##X........###+Xo=$$...X####........X##XX***********",
"**********X##X........##++XX$$$o.o.XX+###........X###X**********",
"**********X#XX..****X###XXX.o$o..&$.XXX###X*****.XX##X**********",
"*********X#X..******X##XXX......o$o...XX##X******..XX#X*********",
"*********X+.*******X#+XXX.......oo.....X++##X******..+X*********",
"*********XX.*******XXXXX...o$...oo.o...XXX###*******.+X*********",
"**********.*******XXXXX....$$o....o$o...XXX##X*******.**********",
"******************X##...**.oo..o..oo.**...###X******************",
"*****************X#+X.*****..*...*..*****.X++#X*****************",
"****************X+#X..********.o.********..XX#X*****************",
"***************X##XX.*********.o.*********.XXX#X****************",
"***************X++X..*********.o.**********..X+X****************",
"***************X++X.**********$&o**********.XX+X****************",
"****************X+.***********oo.***********..+X****************",
"*****************.************$=o*************.X****************",
"***************** ************oo.*******************************",
"***************  @  **********&=o*******************************",
"*************  @@@@@  ********&=o*******************************",
"************ OO  @  OO *******$$o*******************************",
"*********** O%OOO OOOOO ******oo.*******************************",
"*********** OOOOOOO%OO% ******&=o*******************************",
"*********** O%OOOOOOOOO ******&=o*******************************",
"*********** OOO%OOOOOOO ******$&o*******************************",
"************ OOOOO%OOO *******o$.*******************************",
"************ OOOOOOOOO *******=$o*******************************",
"************* O%OO%OO ********oo.*******************************",
"************** OOOOO *********=$o*******************************",
"*************** OOO **********oo.*******************************",
"****************   ***********$$o*******************************",
"******************************$&o*******************************",
"******************************o$.*******************************",
"******************************&=o*******************************",
"******************************o$.*******************************",
"******************************&=o*******************************",
"*****************************X&=oX******************************",
"***************************##.$$..X#****************************",
"**************************X#X..o..XX****************************",
"************************XX#.#.###.#+XXX*************************",
"**********************XXXX..XXX........XX***********************"
};
