/* XPM */
static char *c8ea34b1036041b8c6d2a7cf8f841633sLDnVwjfe0pWPy2i[] = {
/* columns rows colors chars-per-pixel */
"64 64 11 1 ",
"  c #080223",
". c #2E4F71",
"X c #F24942",
"o c #6F3198",
"O c #396898",
"+ c #7B44A2",
"@ c #936CB7",
"# c #498DD1",
"$ c #A992CB",
"% c #B5A5D5",
"& c #CED7DB",
/* pixels */
"oooooooooooooooooooooooooooooooooooooooooooooooooooooooooooooooo",
"oooooooooooooooooooooooooooooooooooooooooooooooooooooooooooooooo",
"oooooooooooooooooooooooooooooooooooooooooooooooooooooooooooooooo",
"oooooooooooooooooooooooooooooooooooooooooooooooooooooooooooooooo",
"oooooooooooooooooooooooooooooooooooooooooooooooooooooooooooooooo",
"oooooooooooooooooooooooooooooooooooooooooooooooooooooooooooooooo",
"oooooooooooooooooooooooooooooooooooooooooooooooooooooooooooooooo",
"oooooooooooooooooooooooooooooooooooooooooooooooooooooooooooooooo",
"oooooooooooooooooooooooooooooooooooooooooooooooooooooooooooooooo",
"oooooooooooooooooooooooooooooooooooooooooooooooooooooooooooooooo",
"oooooooooooooooooooooooooooooooooooooooooooooooooooooooooooooooo",
"oooooooooooooooooooooooooooooooooooooooooooooooooooooooooooooooo",
"oooooooooooooooooooooooooooooooooooooooooooooooooooooooooooooooo",
"oooooooooooooooooooooooooooooooooooooooooooooooooooooooooooooooo",
"oooooooooooooooooooooooooooooooooooooooooooooooooooooooooooooooo",
"oooooooooooooooooooooooooooooooooooooooooooooooooooooooooooooooo",
"oooooooooooooooooooooooooooooooooooooooooooooooooooooooooooooooo",
"oooooooooooooooooooooooooooooooooooooooooooooooooooooooooooooooo",
"oooooooooooooooooooooooooooooOOOOOOooooooooooooooooooooooooooooo",
"oooooooooooooooooooooooooooooOOOOOOooooooooooooooooooooooooooooo",
"oooooooooooooooooooooooooooOOOOOOO.ooooooooooooooooooooooooooooo",
"oooooooooooooooooooooooooooOOOOOO.oooooooooooooooooooooooooooooo",
"oooooooooooooooooooooooooooOOOOOO.oooooooooooooooooooooooooooooo",
"ooooooooooooooooooooo#######OOOOO.oooooooooooooooooooooooooooooo",
"ooooooooooooooooooooo#######OOOOO.oooooooooooooooooooooooooooooo",
"ooooooooooooooooooo##OOOOOOO##OOO.oooooooooooooooooooooooooooooo",
"oooooooooooooooooOOOOOOOOOOOOOOOO.oooooooooOOOOOoooooooooooooooo",
"oooooooooooooooooOOOOOOOOOOOOOOOO.oooooooooOOOOOoooooooooooooooo",
"ooooooooooooooooOOOOOOOOOOOOOOOOOOOOO..oooOOOOoooooooooooooooooo",
"ooooooooooooooooOOOOOOOOOOOOOOOOOOOOO..oooOOOOoooooooooooooooooo",
"ooooooooooooooooOOOOOOOOOOOOOOOOOOOOOOO...OOOOoooooooooooooooooo",
"ooooooooooooooooOOOOOOOOOOO  OOOOOOOOOOOO.OOOooooooooooooooooooo",
"ooooooooooooooooOOOOOOOOOOO  OOOOOOOOOOOO.OOOooooooooooooooooooo",
"oooooooooooooooooOOOOOOOOOO  OOOOOOOOOOOOOOOOooooooooooooooooooo",
"oooooooooooooooooOOOOOOOOOO  OOOOOOOOOOOOOOOOooooooooooooooooooo",
"ooooooooooooooooooOOOOOOOOOOOOOOOOOOO...o.OOOooooooooooooooooooo",
"ooooooooooooooooooOOOOOOOOOOOOOOOOOOO...o.OOOooooooooooooooooooo",
"oooooooooooooooooo&&&&&&&XXOOOOOO....oooo.OOOooooooooooooooooooo",
"ooooooooooooooooooooooo...oooOOOOooooooooo.OOooooooooooooooooooo",
"ooooooooooooooooooooooo...oooOOOOooooooooo.OOooooooooooooooooooo",
"ooooooooooooooooooooooo...ooooOOOoooooooooo..ooooooooooooooooooo",
"ooooooooooooooooooooooo...ooooOOOoooooooooo..ooooooooooooooooooo",
"oooooooooooooooooooooooo..oooooOOooooooooooooooooooooooooooooooo",
"ooooooooooooooooooooooooo.ooooooOooooooooooooooooooooooooooooooo",
"ooooooooooooooooooooooooo.ooooooOooooooooooooooooooooooooooooooo",
"oooooooooooooooooooooooooooooooooooooooooooooooooooooooooooooooo",
"oooooooooooooooooooooooooooooooooooooooooooooooooooooooooooooooo",
"oooooooooooooooooooooooooooooooooooooooooooooooooooooooooooooooo",
"oooooooooooooooooooooooooooooooooooooooooooooooooooooooooooooooo",
"oooooooooooooooooooooooooooooooooooooooooooooooooooooooooooooooo",
"oooooooooooooooooooooooooooooooooooooooooooooooooooooooooooooooo",
"oooooooooooooooooooooooooooooooooooooooooooooooooooooooooooooooo",
"oooooooooooooooooooooooooooooooooooooooooooooooooooooooooooooooo",
"oooooooooooooooooooooooooooooooooooooooooooooooooooooooooooooooo",
"oooooooooooooooooooooooooooooooooooooooooooooooooooooooooooooooo",
"oooooooooooooooooooooooooooooooooooooooooooooooooooooooooooooooo",
"oooooooooooooooooooooooooooooooooooooooooooooooooooooooooooooooo",
"oooooooooooooooooooooooooooooooooooooooooooooooooooooooooooooooo",
"oooooooooooooooooooooooooooooooooooooooooooooooooooooooooooooooo",
"++++++++++++++++++++++++++++++++++++++++++++++++++++++++++++++++",
"@@@@@@@@@@@@@@@@@@@@@@@@@@@@@@@@@@@@@@@@@@@@@@@@@@@@@@@@@@@@@@@@",
"$$$$$$$$$$$$$$$$$$$$$$$$$$$$$$$$$$$$$$$$$$$$$$$$$$$$$$$$$$$$$$$$",
"%%%%%%%%%%%%%%%%%%%%%%%%%%%%%%%%%%%%%%%%%%%%%%%%%%%%%%%%%%%%%%%%",
"%%%%%%%%%%%%%%%%%%%%%%%%%%%%%%%%%%%%%%%%%%%%%%%%%%%%%%%%%%%%%%%%"
};
