/* XPM */
static char *pixil_frame_0_25_1713969730[] = {
/* columns rows colors chars-per-pixel */
"64 64 5 1 ",
"  c #376829",
". c #E37475",
"X c #ED9A9A",
"o c #ACD285",
"O c #B5A5D5",
/* pixels */
"OOOOOOOOOOO OOOOOOOOOO OOOOOOOO OOOOOOOOOO OOOOOOOOOOO OOOOOOOOO",
"OOOOOOOoOO  OOOOOOoOO  OOOOoOO  OOOOOOoOO  OOOOOOOoOO  OOOOOOOOO",
"OOOOOOooO   OOOOOooO   OOOooO   OOOOOooO   OOOOOOooO   OOOOOOOOO",
"OOOOOOooO  OOOOOOooO  OOOOooO  OOOOOOooO  OOOOOOOooO  OOOOOOOOOO",
"OOOOOOOoO OOOOOOOOoO OOOOOOoO OOOOOOOOoO OOOOOOOOOoO OOOOOOOOOOO",
"OOOOOOOOo  OOOOOOOOo  OOOOOOo  OOOOOOOOo  OOOOOOOOOo  OOOOOOOOOO",
"OOOOOOOOOO OOOOOOOOOO OOOOOOOO OOOOOOOOOO OOOOOOOOOOO OOOOOOOOOO",
"OOOOOOOOOOO OOOOOOOOOO OOOOOOOO OOOOOOOOOO OOOOOOOOOOO OOOOOOOOO",
"OOOOOO..OOO OOOOo..OOO OOO..OOO OOOOo..OOO OOOOoO..OOO OOOOoOOOO",
"OOOOOX....OO OOoX....OO OX....OO OOoX....OO OOooX....OO OOooOOOO",
"OOOOOX.....O OoXX.....O XX.....O OoXX.....O OooXX.....O OoooOOOO",
"OOOOXXX... O OoXXX... O XXX... O OoXXX... O OooXXX... O OooOOOOO",
"OOOOOXXX . O OoOXXX . O OXXX . O OoOXXX . O OoOOXXX . O OoOOOOOO",
"OOOOOXXXX  O oO XXXX  O oXXXX  O oO XXXX  O oO  XXXX  O oO   OOO",
"OOOOOOX      O   X      O X      O   X      O   OX      O   OOOO",
"OOOOOOOOOOO   OOOOOOOO   OOOOOO   OOOOOOOO   OOOOOOOOO   OOOOOOO",
"OOOOOOOOOOO OOOOOOOOOO OOOOOOOO OOOOOOOOOO OOOOOOOOOOO OOOOOOOOO",
"OOOOOOOOOO OOOOOOOOOO OOOOOOOO OOOOOOOOOO OOOOOOOOOOO OOOOOOOOOO",
"OOOOOoOOOO OOOXXoOOOO OOOoXOOO OOOXXoOOOO OOOXXOoOOOO OOOXXOOOOO",
"OOOOOooOO OOXXXXooOO OOXXoo.O OOXXXXooOO OOXXXX.ooOO OOXXXX.OOOO",
"OOOOOoooO OXXXXXoooO OXXXooo. OXXXXXoooO OXXXXX.oooO OXXXXX..OOO",
"OOOOOOooO O XXX..ooO O XXXoo. O XXX..ooO O XXX...ooO O XXX...OOO",
"OOOOOOOoO O X ...OoO O X ..oO O X ...OoO O X ...OOoO O X ...OOOO",
"OOOO   Oo O  ..   Oo O     .o O  ..   Oo O  ...   Oo O  ....OOOO",
"OOOOO   O      .   O        O      .   O      .O   O      .OOOOO",
"OOOOOOOO   OOOOOOOO   OOOOOO   OOOOOOOO   OOOOOOOOO   OOOOOOOOOO",
"OOOOOOOOOO OOOOOOOOOO OOOOOOOO OOOOOOOOOO OOOOOOOOOOO OOOOOOOOOO",
"OOOOOOOoOO OOOOOOOoOO OOOOOoOO OOOOOOOoOO OOOOOOOOoOO OOOOOOOOOO",
"OOOOOOooOO OOOOOOooOO OOOOooOO OOOOOOooOO OOOOOOOooOO OOOOOOOOOO",
"OOOOOOooO OOOOOOOooO OOOOOooO OOOOOOOooO OOOOOOOOooO OOOOOOOOOOO",
"OOOOOOOoO OOOOOOOOoO OOOOOOoO OOOOOOOOoO OOOOOOOOOoO OOOOOOOOOOO",
"OOOOOOOOoO OOOOOOOOoO OOOOOOoO OOOOOOOOoO OOOOOOOOOoO OOOOOOOOOO",
"OOOOOOOOOO OOOOOOOOOO OOOOOOOO OOOOOOOOOO OOOOOOOOOOO OOOOOOOOOO",
"OOOOOOOOOOO OOOOOOOOOO OOOOOOOO OOOOOOOOOO OOOOOOOOOOO OOOOOOOOO",
"OOOOOO..OOO OOOOo..OOO OOO..OOO OOOOo..OOO OOOOoO..OOO OOOOoOOOO",
"OOOOOX....OO OOoX....OO OX....OO OOoX....OO OOooX....OO OOooOOOO",
"OOOOXX.....O OoXX.....O XX.....O OoXX.....O OooXX.....O OoooOOOO",
"OOOOXXX... O OoXXX... O XXX... O OoXXX... O OooXXX... O OooOOOOO",
"OOOOOXXX . O OoOXXX . O OXXX . O OoOXXX . O OoOOXXX . O OoOOOOOO",
"OOOOOXXXX  O oO XXXX  O oXXXX  O oO XXXX  O oO  XXXX  O oO   OOO",
"OOOOOOX      O   X      O X      O   X      O   OX      O   OOOO",
"OOOOOOOOOOO   OOOOOOOO   OOOOOO   OOOOOOOO   OOOOOOOOO   OOOOOOO",
"OOOOOOOOOOO OOOOOOOOOO OOOOOOOO OOOOOOOOOO OOOOOOOOOOO OOOOOOOOO",
"OOOOOOOOOO OOOOOOOOOO OOOOOOOO OOOOOOOOOO OOOOOOOOOOO OOOOOOOOOO",
"OOOOOoOOOO OOOXXoOOOO OOOoXOOO OOOXXoOOOO OOOXXOoOOOO OOOXXOOOOO",
"OOOOOooOO OOXXXXooOO OOXXoo.O OOXXXXooOO OOXXXX.ooOO OOXXXX.OOOO",
"OOOOOoooO OXXXXXoooO OXXXooo. OXXXXXoooO OXXXXX.oooO OXXXXX..OOO",
"OOOOOOooO O XXX..ooO O XXXoo. O XXX..ooO O XXX...ooO O XXX...OOO",
"OOOOOOOoO O X ...OoO O X ..oO O X ...OoO O X ...OOoO O X ...OOOO",
"OOOO   Oo O  ..   Oo O     .o O  ..   Oo O  ...   Oo O  ....OOOO",
"OOOOO   O      .   O        O      .   O      .O   O      .OOOOO",
"OOOOOOOO   OOOOOOOO   OOOOOO   OOOOOOOO   OOOOOOOOO   OOOOOOOOOO",
"OOOOOOOOOO OOOOOOOOOO OOOOOOOO OOOOOOOOOO OOOOOOOOOOO OOOOOOOOOO",
"OOOOOOOoOO OOOOOOOoOO OOOOOoOO OOOOOOOoOO OOOOOOOOoOO OOOOOOOOOO",
"OOOOOOooOO OOOOOOooOO OOOOooOO OOOOOOooOO OOOOOOOooOO OOOOOOOOOO",
"OOOOOOooO OOOOOOOooO OOOOOooO OOOOOOOooO OOOOOOOOooO OOOOOOOOOOO",
"OOOOOOOoO OOOOOOOOoO OOOOOOoO OOOOOOOOoO OOOOOOOOOoO OOOOOOOOOOO",
"OOOOOOOOoO OOOOOOOOoO OOOOOOoO OOOOOOOOoO OOOOOOOOOoO OOOOOOOOOO",
"OOOOOOOOOO OOOOOOOOOO OOOOOOOO OOOOOOOOOO OOOOOOOOOOO OOOOOOOOOO",
"OOOOOOOOOOO OOOOOOOOOO OOOOOOOO OOOOOOOOOO OOOOOOOOOOO OOOOOOOOO",
"OOOOOO..OOO OOOOo..OOO OOO..OOO OOOOo..OOO OOOOoO..OOO OOOOoOOOO",
"OOOOOX....OO OOoX....OO OX....OO OOoX....OO OOooX....OO OOooOOOO",
"OOOOXX.....O OoXX.....O XX.....O OoXX.....O OooXX.....O OoooOOOO",
"OOOOXXX... O OoXXX... O XXX... O OoXXX... O OooXXX... O OooOOOOO"
};
